<svg xmlns="http://www.w3.org/2000/svg" xmlns:xlink="http://www.w3.org/1999/xlink" width="500" zoomAndPan="magnify" viewBox="0 0 375 374.999991" height="500" preserveAspectRatio="xMidYMid meet" version="1.0"><defs><clipPath id="8c76379baf"><path d="M 27 74 L 358 74 L 358 303 L 27 303 Z M 27 74 " clip-rule="nonzero"/></clipPath><clipPath id="36487bc1e5"><path d="M 43.667969 39.886719 L 374.664062 101.875 L 331.035156 334.828125 L 0.0429688 272.835938 Z M 43.667969 39.886719 " clip-rule="nonzero"/></clipPath><clipPath id="f81fd3f987"><path d="M 43.667969 39.886719 L 374.664062 101.875 L 331.035156 334.828125 L 0.0429688 272.835938 Z M 43.667969 39.886719 " clip-rule="nonzero"/></clipPath><clipPath id="a1edc3015f"><path d="M 87.234375 270.320312 L 96.984375 270.320312 L 96.984375 281.570312 L 87.234375 281.570312 Z M 87.234375 270.320312 " clip-rule="nonzero"/></clipPath></defs><g clip-path="url(#8c76379baf)"><g clip-path="url(#36487bc1e5)"><g clip-path="url(#f81fd3f987)"><path fill="#ffc29e" d="M 357.179688 189.824219 C 359.734375 169.101562 347.585938 147.742188 328.871094 138.816406 C 316.859375 133.058594 302.164062 131.785156 289.429688 135.941406 C 289.273438 134.039062 289.015625 132.132812 288.667969 130.257812 C 284.648438 107.59375 266.457031 89.425781 245.558594 81.019531 C 241.449219 79.332031 237.234375 77.964844 232.949219 76.863281 C 220.730469 73.070312 208.5625 75.53125 197.019531 79.652344 C 166.964844 90.324219 139.636719 112.980469 106.410156 110.226562 C 105.835938 110.160156 105.28125 110.496094 105.105469 111.078125 C 104.917969 111.699219 105.277344 112.363281 105.910156 112.546875 C 111.28125 114.277344 116.90625 115.128906 122.558594 115.238281 C 139.429688 115.5 156.003906 109.578125 171.273438 103.523438 C 188.972656 97.011719 210.871094 84.46875 228.933594 89.8125 C 251.546875 95.191406 273.027344 109.691406 281.078125 132.292969 C 281.835938 134.351562 282.480469 136.457031 282.996094 138.605469 C 279.535156 140.363281 276.308594 142.597656 273.433594 145.328125 C 269.9375 148.777344 267.277344 153.265625 266.496094 158.035156 C 266.417969 158.542969 266.671875 159.074219 267.167969 159.304688 C 267.765625 159.59375 268.492188 159.335938 268.773438 158.730469 C 270.632812 154.859375 273.558594 151.828125 276.972656 149.570312 C 279.28125 148.128906 281.722656 146.9375 284.273438 145.992188 C 285.953125 145.363281 287.683594 144.851562 289.433594 144.4375 C 304.707031 140.824219 322.214844 145.109375 333.289062 155.796875 C 340.96875 163.296875 345.625 173.957031 345.351562 184.699219 C 345.144531 189.757812 343.871094 194.703125 342.445312 199.519531 C 338.097656 213.9375 328.117188 226.574219 313.585938 230.957031 C 304.828125 233.695312 295.480469 234.589844 286.335938 233.625 C 269.023438 232.203125 256.914062 223.265625 243.59375 214.785156 C 255.183594 212.632812 267.269531 206.109375 269.828125 193.964844 C 270.085938 192.683594 268.320312 191.984375 267.625 193.085938 C 263.152344 199.753906 256.472656 203.3125 248.992188 205.46875 C 243.886719 206.980469 238.609375 207.558594 233.398438 208.707031 C 233.398438 208.707031 233.398438 208.707031 233.394531 208.707031 C 231.636719 207.75 229.828125 206.832031 227.972656 205.960938 C 223.503906 203.902344 218.941406 202.199219 214.308594 200.808594 C 214.304688 200.808594 214.300781 200.808594 214.296875 200.808594 C 225.582031 195.488281 235.332031 185.648438 239.773438 174.878906 C 242.183594 169.300781 243.699219 162.902344 242.230469 156.875 C 241.910156 155.519531 239.875 155.78125 239.875 157.148438 C 239.6875 162.601562 237.445312 167.691406 234.605469 172.253906 C 227.085938 184.8125 214.160156 193.273438 200.171875 196.855469 C 199.75 196.984375 199.316406 197.09375 198.886719 197.214844 C 193.519531 196.300781 188.089844 195.683594 182.632812 195.28125 C 183.046875 194.972656 183.453125 194.65625 183.855469 194.328125 C 191.046875 188.5625 196.640625 180.097656 197.878906 170.972656 C 197.949219 170.457031 197.679688 169.933594 197.179688 169.710938 C 196.566406 169.4375 195.839844 169.730469 195.585938 170.355469 C 194.492188 172.828125 193.167969 175.136719 191.660156 177.277344 C 187.140625 183.539062 180.742188 188.335938 173.628906 191.214844 C 155.484375 198.667969 131.539062 192.046875 116.910156 179.933594 C 109.070312 173.03125 103.910156 163.242188 97.921875 154.398438 C 97.175781 153.316406 95.511719 154.039062 95.730469 155.304688 C 96.777344 160.878906 98.285156 166.347656 100.472656 171.746094 C 104.914062 183.089844 112.367188 190.976562 122.234375 196.375 C 118.265625 196.898438 114.332031 197.632812 110.46875 198.664062 C 100.246094 201.269531 89.835938 205.910156 79.472656 204.273438 C 56.222656 203.21875 40.417969 166.644531 39.355469 146.273438 C 38.242188 128.902344 49.136719 111.535156 65.578125 105.371094 C 86.410156 97.378906 109.785156 102.183594 131.769531 97.613281 C 141.890625 95.800781 151.175781 90.851562 160.53125 87.011719 C 161.871094 86.460938 161.238281 84.425781 159.792969 84.757812 C 150.097656 87.296875 140.851562 91.164062 130.898438 92.066406 C 116.144531 93.640625 100.839844 91.5625 85.765625 92.0625 C 75.15625 92.335938 63.976562 94.160156 54.453125 99.34375 C 38.125 107.9375 27.5625 125.9375 27.613281 144.4375 C 27.503906 163.074219 36.734375 186.253906 48.707031 200.507812 C 55.964844 209.230469 66.519531 216.402344 78.390625 217.089844 C 81.492188 217.582031 84.578125 217.652344 87.558594 217.453125 C 87.558594 217.457031 87.558594 217.457031 87.558594 217.457031 C 86.890625 231.902344 85.902344 246.355469 84.324219 260.703125 C 83.421875 269.304688 81.746094 279.5 80.007812 287.988281 C 80.007812 287.988281 91.332031 285.074219 91.332031 285.074219 C 102.292969 282.328125 114.308594 281.578125 125.789062 281.347656 C 157.25 281.128906 203.019531 285.34375 230.054688 301.871094 C 230.566406 302.210938 231.261719 302.101562 231.644531 301.609375 C 232.046875 301.09375 231.953125 300.347656 231.433594 299.941406 C 205.101562 280.402344 158.621094 271.921875 126.152344 269.242188 C 116.789062 268.605469 107.574219 268.257812 98.234375 268.917969 C 99.585938 251.101562 99.667969 233.296875 99.492188 215.441406 C 99.492188 215.441406 99.496094 215.441406 99.496094 215.441406 C 106.417969 213.722656 112.820312 211.453125 119.878906 210.222656 C 128.335938 208.757812 137.035156 208.578125 145.757812 208.367188 C 158.941406 208.070312 172.359375 207.960938 185.351562 209.265625 C 200.242188 210.769531 214.714844 214.136719 227.792969 221.300781 C 235.425781 225.515625 242.4375 230.644531 250 235.132812 C 250 235.132812 250 235.132812 250.003906 235.132812 C 246.050781 248.644531 243.441406 262.792969 240.46875 276.554688 C 228.085938 269.65625 214.753906 264.667969 201.121094 260.914062 C 184.359375 256.503906 166.585938 254.21875 149.433594 257.351562 C 148.847656 257.460938 148.425781 257.992188 148.464844 258.601562 C 148.511719 259.257812 149.078125 259.75 149.734375 259.703125 C 158.109375 259.125 166.488281 259.960938 174.652344 261.613281 C 194.925781 265.863281 214.210938 274.640625 231.339844 286.128906 C 234.707031 288.417969 237.925781 290.867188 240.855469 293.40625 C 240.855469 293.40625 249.679688 299.828125 249.679688 299.828125 C 250.320312 297.023438 252.429688 288.480469 252.972656 285.777344 C 255.910156 271.414062 258.261719 255.726562 261.921875 241.242188 C 279.429688 248.558594 299.621094 249.421875 317.664062 243.433594 C 341.292969 235.792969 354.128906 213.351562 357.179688 189.824219 Z M 357.179688 189.824219 " fill-opacity="1" fill-rule="nonzero"/></g></g></g><g clip-path="url(#a1edc3015f)"><path fill="#ffc29e" d="M 94.347656 271.792969 C 94.066406 270.960938 93 271.304688 92.367188 271.191406 C 91.84375 271.097656 91.371094 270.710938 90.847656 270.578125 C 89.859375 270.320312 88.433594 270.804688 87.875 271.667969 C 87.308594 272.542969 87.25 273.796875 87.484375 274.789062 C 87.570312 275.152344 87.769531 275.476562 87.859375 275.839844 C 88.023438 276.515625 88.089844 277.382812 88.050781 278.078125 C 88.019531 278.71875 87.238281 279.75 87.621094 280.355469 C 87.84375 280.710938 88.332031 280.894531 88.695312 281.0625 C 89.683594 281.523438 90.738281 281.675781 91.8125 281.675781 C 92.210938 281.675781 92.960938 281.546875 93.28125 281.28125 C 93.449219 281.144531 93.410156 280.84375 93.433594 280.648438 C 93.496094 280.136719 93.5 279.5 93.761719 279.046875 C 94.414062 277.917969 95.242188 276.882812 95.972656 275.800781 C 96.300781 275.304688 96.757812 274.746094 96.898438 274.15625 C 97.042969 273.539062 96.988281 272.570312 96.527344 272.101562 C 95.984375 271.550781 95.128906 271.574219 94.445312 271.773438 M 91.945312 271.285156 C 91.121094 271.542969 90.554688 272.792969 90.550781 273.605469 C 90.542969 273.867188 90.453125 274.34375 90.722656 274.492188 C 90.601562 273.558594 90.789062 272.160156 91.65625 271.589844 C 92.253906 271.191406 93.613281 271.128906 94.121094 271.710938 C 94.4375 272.074219 94.4375 272.648438 94.382812 273.101562 C 94.292969 273.839844 93.667969 274.324219 93.378906 274.957031 C 93.90625 274.808594 94.511719 273.632812 94.539062 273.101562 C 94.566406 272.566406 94.3125 272.011719 94.980469 271.832031 C 96.316406 271.472656 96.789062 272.699219 96.738281 273.757812 C 96.679688 274.148438 96.460938 274.742188 96.246094 275.082031 C 95.761719 275.847656 95.289062 276.679688 94.6875 277.359375 C 94.496094 277.578125 93.925781 278.519531 93.574219 278.09375 C 93.453125 277.949219 93.609375 277.742188 93.6875 277.613281 C 93.953125 277.167969 94.257812 276.757812 94.515625 276.304688 C 94 276.5625 93.882812 277.414062 93.335938 277.738281 C 93.050781 277.910156 92.480469 277.65625 92.421875 277.316406 C 92.363281 276.96875 92.578125 276.511719 92.746094 276.222656 C 92.367188 276.5 92.464844 277.03125 92.140625 277.285156 C 91.96875 277.417969 91.660156 277.320312 91.476562 277.273438 C 91.277344 277.226562 90.972656 277.203125 90.832031 277.042969 C 90.726562 276.925781 90.765625 276.703125 90.761719 276.558594 C 90.761719 276.230469 90.722656 275.90625 90.636719 275.589844 C 90.636719 275.589844 90.730469 276.652344 90.515625 276.925781 C 90.3125 277.183594 89.480469 277.101562 89.414062 276.8125 L 89.328125 275.839844 C 89.21875 276.144531 89.316406 276.472656 89.203125 276.769531 C 89.136719 276.945312 88.757812 277.195312 88.636719 276.929688 C 88.53125 276.691406 88.589844 276.273438 88.566406 276.011719 C 88.53125 275.644531 88.410156 275.230469 88.316406 274.871094 C 88.316406 274.871094 88.4375 275.988281 88.445312 276.515625 C 88.445312 276.746094 88.378906 277.261719 88.21875 277.023438 C 88.042969 276.566406 88.097656 276.292969 87.984375 275.828125 C 87.898438 275.476562 87.710938 275.050781 87.621094 274.703125 C 87.386719 273.789062 87.480469 272.703125 87.953125 271.878906 C 88.558594 270.8125 90.199219 270.390625 91.269531 270.894531 C 91.492188 271 91.804688 271.074219 91.945312 271.285156 M 89.289062 272.972656 L 89.320312 273.03125 C 89.371094 272.402344 89.769531 271.570312 90.425781 271.414062 C 89.777344 271.144531 89.070312 272.453125 89.289062 272.972656 M 95.445312 272.507812 C 95.585938 272.851562 95.722656 273.164062 95.648438 273.542969 C 95.625 273.84375 95.429688 274.195312 95.359375 274.492188 C 95.804688 274.125 96.011719 272.886719 95.445312 272.507812 M 93.292969 280.859375 C 91.71875 280.03125 89.441406 279.59375 87.683594 280.058594 C 87.714844 279.402344 88.136719 278.820312 88.1875 278.160156 C 88.203125 277.9375 88.128906 277.527344 88.300781 277.347656 C 88.5625 277.074219 89.195312 277.144531 89.539062 277.148438 C 90.671875 277.164062 91.917969 277.375 92.914062 277.933594 C 93.167969 278.074219 93.570312 278.203125 93.730469 278.457031 C 93.875 278.683594 93.59375 278.960938 93.519531 279.171875 C 93.351562 279.664062 93.292969 280.34375 93.292969 280.859375 M 92.929688 280.914062 C 93.132812 281.042969 93.261719 281.148438 93.085938 281.253906 C 92.042969 281.75 90.8125 281.5 89.75 281.121094 C 89.476562 281.023438 88.691406 280.828125 88.71875 280.441406 C 88.75 280.03125 89.425781 280.097656 89.6875 280.097656 C 90.8125 280.144531 91.902344 280.355469 92.929688 280.914062 Z M 92.929688 280.914062 " fill-opacity="1" fill-rule="nonzero"/></g></svg>