<svg xmlns="http://www.w3.org/2000/svg" xmlns:xlink="http://www.w3.org/1999/xlink" width="1000" zoomAndPan="magnify" viewBox="0 0 750 299.999988" height="400" preserveAspectRatio="xMidYMid meet" version="1.0"><defs><g/><clipPath id="c195077398"><path d="M 212 60 L 315 60 L 315 132 L 212 132 Z M 212 60 " clip-rule="nonzero"/></clipPath><clipPath id="db3ade7db4"><path d="M 217.199219 49.660156 L 320.628906 69.03125 L 306.972656 141.9375 L 203.546875 122.566406 Z M 217.199219 49.660156 " clip-rule="nonzero"/></clipPath><clipPath id="115efd38da"><path d="M 217.199219 49.660156 L 320.628906 69.03125 L 306.972656 141.9375 L 203.546875 122.566406 Z M 217.199219 49.660156 " clip-rule="nonzero"/></clipPath></defs><rect x="-75" width="900" fill="#ffffff" y="-29.999999" height="359.999986" fill-opacity="1"/><rect x="-75" width="900" fill="#f2f6fa" y="-29.999999" height="359.999986" fill-opacity="1"/><g fill="#697e91" fill-opacity="1"><g transform="translate(30.053919, 216.384642)"><g><path d="M 29.65625 8.328125 C 27.050781 7.398438 24.546875 6.050781 22.140625 4.28125 C 19.742188 2.519531 18 0.296875 16.90625 -2.390625 C 15.5625 -6.179688 14.890625 -10.644531 14.890625 -15.78125 C 14.890625 -20.738281 15.179688 -24.960938 15.765625 -28.453125 C 16.359375 -31.941406 17.367188 -35.5 18.796875 -39.125 L 19.9375 -41.765625 C 21.28125 -45.210938 22.25 -47.484375 22.84375 -48.578125 C 24.269531 -51.859375 26.789062 -56.109375 30.40625 -61.328125 C 33.769531 -66.367188 36.441406 -70.128906 38.421875 -72.609375 C 40.398438 -75.097656 42.441406 -77.242188 44.546875 -79.046875 C 46.648438 -80.859375 49.71875 -83.15625 53.75 -85.9375 C 56.195312 -87.695312 59.1875 -88.578125 62.71875 -88.578125 C 65.488281 -88.578125 68.03125 -87.90625 70.34375 -86.5625 C 72.65625 -85.21875 74.40625 -83.113281 75.59375 -80.25 C 76.425781 -78.820312 76.84375 -76.847656 76.84375 -74.328125 C 76.84375 -70.285156 75.875 -65.910156 73.9375 -61.203125 C 72.007812 -56.492188 69.695312 -52.914062 67 -50.46875 C 66.414062 -49.882812 65.617188 -49.59375 64.609375 -49.59375 C 63.597656 -49.59375 62.503906 -49.882812 61.328125 -50.46875 C 60.148438 -51.0625 59.097656 -51.78125 58.171875 -52.625 C 57.410156 -54.050781 56.988281 -54.890625 56.90625 -55.140625 C 56.820312 -55.390625 56.992188 -55.5625 57.421875 -55.65625 C 58.171875 -56.570312 59.28125 -58.351562 60.75 -61 C 62.226562 -63.65625 63.21875 -65.742188 63.71875 -67.265625 L 64.484375 -70.796875 C 64.984375 -72.984375 65.234375 -74.410156 65.234375 -75.078125 C 65.234375 -75.835938 64.941406 -76.507812 64.359375 -77.09375 C 64.109375 -77.351562 63.769531 -77.484375 63.34375 -77.484375 C 62.675781 -77.484375 61.5 -77.0625 59.8125 -76.21875 C 57.875 -75.375 55.578125 -73.671875 52.921875 -71.109375 C 50.273438 -68.546875 47.648438 -65.492188 45.046875 -61.953125 C 41.179688 -56.910156 38.21875 -52.75 36.15625 -49.46875 C 34.09375 -46.1875 32.515625 -42.863281 31.421875 -39.5 L 30.03125 -36.21875 C 30.113281 -35.882812 29.988281 -35.039062 29.65625 -33.6875 C 29.320312 -32.34375 28.941406 -31.25 28.515625 -30.40625 C 27.335938 -25.53125 26.75 -21.113281 26.75 -17.15625 C 26.75 -14.050781 27.0625 -11.359375 27.6875 -9.078125 C 28.320312 -6.804688 29.226562 -5.125 30.40625 -4.03125 C 31.082031 -3.445312 32.050781 -3.15625 33.3125 -3.15625 C 34.65625 -3.15625 36.1875 -3.46875 37.90625 -4.09375 C 39.632812 -4.726562 41.46875 -5.46875 43.40625 -6.3125 C 45.34375 -7.15625 46.691406 -7.742188 47.453125 -8.078125 C 49.378906 -8.835938 51.203125 -9.71875 52.921875 -10.71875 C 54.648438 -11.726562 55.9375 -12.65625 56.78125 -13.5 C 58.96875 -15.101562 60.734375 -15.90625 62.078125 -15.90625 C 63.171875 -16.238281 64.035156 -15.898438 64.671875 -14.890625 C 65.304688 -13.878906 65.625 -12.488281 65.625 -10.71875 C 65.625 -9.539062 64.820312 -8.128906 63.21875 -6.484375 C 61.625 -4.847656 59.734375 -3.398438 57.546875 -2.140625 C 56.617188 -1.210938 54.554688 -0.117188 51.359375 1.140625 C 48.671875 3.066406 45.535156 4.785156 41.953125 6.296875 C 38.378906 7.816406 35.117188 8.578125 32.171875 8.578125 C 31.503906 8.578125 30.664062 8.492188 29.65625 8.328125 Z M 29.65625 8.328125 "/></g></g></g><g fill="#697e91" fill-opacity="1"><g transform="translate(92.002197, 216.384642)"><g><path d="M 17.40625 -4.796875 C 15.894531 -5.046875 14.507812 -5.882812 13.25 -7.3125 C 11.988281 -8.75 11.359375 -10.390625 11.359375 -12.234375 C 11.359375 -14.253906 12.617188 -19.429688 15.140625 -27.765625 C 15.566406 -29.953125 16.492188 -32.769531 17.921875 -36.21875 C 18.421875 -37.644531 18.710938 -38.484375 18.796875 -38.734375 C 20.316406 -43.785156 22.378906 -49.972656 24.984375 -57.296875 L 26.125 -60.3125 C 29.0625 -68.3125 30.828125 -73.191406 31.421875 -74.953125 L 33.4375 -80.5 C 33.4375 -81.175781 33.921875 -81.828125 34.890625 -82.453125 C 35.859375 -83.085938 36.675781 -83.40625 37.34375 -83.40625 C 38.695312 -83.40625 40.003906 -82.519531 41.265625 -80.75 C 42.523438 -78.988281 43.195312 -77.140625 43.28125 -75.203125 C 43.28125 -74.191406 43.070312 -73.269531 42.65625 -72.4375 C 40.71875 -68.226562 38.316406 -61.707031 35.453125 -52.875 C 34.191406 -49.175781 32.929688 -45.660156 31.671875 -42.328125 C 30.410156 -39.003906 29.398438 -36.628906 28.640625 -35.203125 L 27.25 -32.4375 L 25.484375 -25.75 C 25.484375 -25.488281 25.441406 -25.273438 25.359375 -25.109375 C 25.273438 -24.941406 25.234375 -24.816406 25.234375 -24.734375 C 25.234375 -24.484375 25.273438 -24.359375 25.359375 -24.359375 L 27.515625 -26.5 C 29.953125 -28.9375 32.851562 -31.414062 36.21875 -33.9375 C 38.988281 -35.875 40.414062 -36.96875 40.5 -37.21875 C 40.582031 -37.476562 40.921875 -37.859375 41.515625 -38.359375 L 42.78125 -39.375 C 45.46875 -41.300781 48.367188 -42.265625 51.484375 -42.265625 C 52.410156 -42.265625 53.503906 -41.800781 54.765625 -40.875 C 56.023438 -39.957031 57.097656 -38.675781 57.984375 -37.03125 C 58.867188 -35.394531 59.3125 -33.648438 59.3125 -31.796875 L 59.3125 -29.90625 C 59.3125 -27.800781 58.910156 -25.046875 58.109375 -21.640625 C 57.304688 -18.234375 56.863281 -16.28125 56.78125 -15.78125 C 57.207031 -15.78125 57.835938 -15.863281 58.671875 -16.03125 C 59.929688 -16.03125 60.832031 -15.898438 61.375 -15.640625 C 61.925781 -15.390625 62.410156 -15.050781 62.828125 -14.625 C 63.253906 -14.207031 63.640625 -13.957031 63.984375 -13.875 C 64.148438 -13.707031 64.234375 -13.457031 64.234375 -13.125 C 64.234375 -11.1875 63.179688 -9.503906 61.078125 -8.078125 C 58.972656 -6.648438 56.953125 -5.847656 55.015625 -5.671875 C 52.660156 -5.671875 50.765625 -6.554688 49.328125 -8.328125 C 47.898438 -10.097656 47.1875 -12.242188 47.1875 -14.765625 C 47.1875 -15.773438 47.226562 -16.785156 47.3125 -17.796875 C 47.40625 -18.804688 47.492188 -19.6875 47.578125 -20.4375 C 47.828125 -22.125 47.953125 -23.472656 47.953125 -24.484375 C 47.953125 -25.578125 47.847656 -26.3125 47.640625 -26.6875 C 47.429688 -27.0625 47.070312 -27.25 46.5625 -27.25 C 44.882812 -27.25 41.960938 -25.710938 37.796875 -22.640625 C 33.628906 -19.578125 29.398438 -15.601562 25.109375 -10.71875 C 22.421875 -6.769531 19.851562 -4.796875 17.40625 -4.796875 Z M 17.40625 -4.796875 "/></g></g></g><g fill="#697e91" fill-opacity="1"><g transform="translate(151.679464, 216.384642)"><g><path d="M 28.140625 0 C 23.347656 0 19.476562 -1.34375 16.53125 -4.03125 C 13.582031 -6.726562 12.109375 -10.554688 12.109375 -15.515625 C 12.109375 -17.453125 12.238281 -19.597656 12.5 -21.953125 C 12.664062 -23.972656 13.484375 -26.75 14.953125 -30.28125 C 16.421875 -33.8125 18.4375 -37.257812 21 -40.625 C 23.570312 -44 26.582031 -46.484375 30.03125 -48.078125 C 31.632812 -48.835938 32.984375 -49.363281 34.078125 -49.65625 C 35.171875 -49.945312 36.429688 -50.09375 37.859375 -50.09375 C 41.304688 -50.09375 44.101562 -49.460938 46.25 -48.203125 C 48.394531 -46.941406 49.90625 -45.507812 50.78125 -43.90625 C 51.664062 -42.3125 52.109375 -40.925781 52.109375 -39.75 L 52.109375 -38.734375 C 52.109375 -37.722656 51.519531 -35.875 50.34375 -33.1875 C 49.164062 -30.5 47.296875 -27.972656 44.734375 -25.609375 C 42.171875 -23.253906 38.867188 -21.953125 34.828125 -21.703125 C 32.804688 -21.703125 30.847656 -21.890625 28.953125 -22.265625 C 27.066406 -22.648438 25.867188 -22.84375 25.359375 -22.84375 C 24.097656 -22.84375 23.300781 -22.378906 22.96875 -21.453125 C 22.632812 -20.523438 22.46875 -18.96875 22.46875 -16.78125 C 22.71875 -14.425781 23.367188 -12.785156 24.421875 -11.859375 C 25.472656 -10.929688 27.003906 -10.46875 29.015625 -10.46875 C 30.023438 -10.46875 31.207031 -10.765625 32.5625 -11.359375 C 33.90625 -12.023438 35.5 -13.078125 37.34375 -14.515625 C 38.351562 -15.359375 39.148438 -15.945312 39.734375 -16.28125 C 40.328125 -16.613281 41.046875 -16.78125 41.890625 -16.78125 C 42.648438 -16.78125 43.535156 -16.273438 44.546875 -15.265625 C 45.554688 -14.253906 46.101562 -13.285156 46.1875 -12.359375 C 46.019531 -11.359375 45.09375 -9.847656 43.40625 -7.828125 C 41.726562 -5.804688 39.539062 -3.992188 36.84375 -2.390625 C 34.15625 -0.796875 31.253906 0 28.140625 0 Z M 32.5625 -30.40625 C 34.15625 -30.40625 35.25 -30.578125 35.84375 -30.921875 C 36.675781 -31.335938 37.953125 -32.40625 39.671875 -34.125 C 41.398438 -35.851562 42.3125 -37.054688 42.40625 -37.734375 C 42.40625 -38.566406 42.046875 -39.253906 41.328125 -39.796875 C 40.609375 -40.347656 39.617188 -40.710938 38.359375 -40.890625 L 36.96875 -40.890625 C 35.875 -40.890625 34.296875 -39.984375 32.234375 -38.171875 C 30.179688 -36.359375 28.394531 -34.273438 26.875 -31.921875 C 26.957031 -31.503906 27.585938 -31.144531 28.765625 -30.84375 C 29.941406 -30.550781 31.207031 -30.40625 32.5625 -30.40625 Z M 32.5625 -30.40625 "/></g></g></g><g fill="#697e91" fill-opacity="1"><g transform="translate(193.819433, 216.384642)"><g><path d="M 18.546875 15.265625 C 18.046875 15.609375 16.890625 15.207031 15.078125 14.0625 C 13.265625 12.925781 11.769531 11.6875 10.59375 10.34375 C 10.09375 9.84375 9.757812 9.359375 9.59375 8.890625 C 9.425781 8.429688 9.34375 7.820312 9.34375 7.0625 L 9.59375 3.90625 C 10.007812 2.644531 10.21875 1.175781 10.21875 -0.5 C 10.21875 -1.175781 10.507812 -3.300781 11.09375 -6.875 C 11.6875 -10.445312 12.15625 -13.035156 12.5 -14.640625 L 12.875 -16.15625 C 13.539062 -18.925781 14.046875 -21.488281 14.390625 -23.84375 C 15.054688 -25.945312 15.617188 -28.03125 16.078125 -30.09375 C 16.546875 -32.15625 16.78125 -33.566406 16.78125 -34.328125 C 16.78125 -35.835938 17.367188 -36.929688 18.546875 -37.609375 C 18.628906 -38.273438 19.257812 -39.660156 20.4375 -41.765625 C 22.457031 -47.484375 23.953125 -51.582031 24.921875 -54.0625 C 25.890625 -56.550781 26.921875 -58.71875 28.015625 -60.5625 C 29.523438 -64.769531 30.742188 -67.421875 31.671875 -68.515625 C 32.265625 -69.953125 33.863281 -72.054688 36.46875 -74.828125 C 39.070312 -77.609375 41.382812 -79.835938 43.40625 -81.515625 C 47.613281 -83.703125 51.148438 -84.796875 54.015625 -84.796875 C 56.453125 -84.796875 59.269531 -83.28125 62.46875 -80.25 C 63.644531 -78.988281 64.316406 -78.144531 64.484375 -77.71875 C 64.648438 -77.300781 64.734375 -76.503906 64.734375 -75.328125 C 64.398438 -73.734375 62.925781 -70.914062 60.3125 -66.875 C 57.707031 -62.84375 56.066406 -60.785156 55.390625 -60.703125 C 54.378906 -60.359375 53.707031 -60.1875 53.375 -60.1875 C 52.613281 -60.1875 51.984375 -60.4375 51.484375 -60.9375 C 50.984375 -61.445312 50.734375 -62.207031 50.734375 -63.21875 C 50.734375 -64.820312 51.234375 -66.671875 52.234375 -68.765625 C 53.242188 -70.117188 53.75 -71.300781 53.75 -72.3125 C 53.75 -73.738281 52.613281 -74.453125 50.34375 -74.453125 C 49.675781 -74.117188 48.351562 -72.921875 46.375 -70.859375 C 44.394531 -68.796875 43.40625 -67.507812 43.40625 -67 C 43.320312 -66.832031 43.085938 -66.390625 42.703125 -65.671875 C 42.328125 -64.960938 41.765625 -64.144531 41.015625 -63.21875 C 39.492188 -61.113281 38.734375 -59.8125 38.734375 -59.3125 C 38.734375 -58.21875 38.484375 -57.671875 37.984375 -57.671875 C 37.898438 -57.503906 37.707031 -57.019531 37.40625 -56.21875 C 37.113281 -55.414062 36.71875 -54.550781 36.21875 -53.625 C 35.882812 -52.875 35.460938 -52.035156 34.953125 -51.109375 C 34.453125 -50.179688 34.03125 -49.550781 33.6875 -49.21875 L 33.8125 -49.21875 C 33.5625 -48.625 33.097656 -47.503906 32.421875 -45.859375 C 31.753906 -44.222656 31.421875 -43.28125 31.421875 -43.03125 C 31.421875 -42.695312 31.925781 -42.53125 32.9375 -42.53125 C 34.789062 -42.53125 37.398438 -42.988281 40.765625 -43.90625 C 41.859375 -44.25 42.65625 -44.421875 43.15625 -44.421875 C 43.75 -44.421875 44.59375 -44.25 45.6875 -43.90625 C 46.601562 -43.320312 47.351562 -42.019531 47.9375 -40 C 48.53125 -37.976562 48.660156 -36.71875 48.328125 -36.21875 C 48.242188 -35.882812 47.335938 -35.421875 45.609375 -34.828125 C 43.890625 -34.234375 42.101562 -33.769531 40.25 -33.4375 L 35.078125 -32.296875 C 30.285156 -31.296875 27.890625 -30.625 27.890625 -30.28125 C 27.546875 -30.28125 27.25 -30.113281 27 -29.78125 C 26.75 -29.445312 26.625 -29.109375 26.625 -28.765625 C 26.625 -27.585938 26.457031 -26.707031 26.125 -26.125 C 25.695312 -24.945312 25 -22.128906 24.03125 -17.671875 C 23.070312 -13.210938 22.59375 -10.476562 22.59375 -9.46875 C 21.914062 -8.625 21.578125 -7.109375 21.578125 -4.921875 C 21.078125 -3.992188 20.828125 -2.941406 20.828125 -1.765625 C 20.828125 -1.265625 20.78125 -0.84375 20.6875 -0.5 C 20.6875 -0.0820312 20.601562 0.921875 20.4375 2.515625 C 20.269531 4.117188 20.1875 5.59375 20.1875 6.9375 L 19.8125 10.59375 C 19.726562 11.601562 19.601562 12.53125 19.4375 13.375 C 19.269531 14.21875 18.972656 14.847656 18.546875 15.265625 Z M 18.546875 15.265625 "/></g></g></g><g fill="#697e91" fill-opacity="1"><g transform="translate(231.669698, 216.384642)"><g><path d="M 24.984375 -54.390625 C 23.972656 -54.222656 23.34375 -54.140625 23.09375 -54.140625 C 21.832031 -54.140625 20.695312 -54.554688 19.6875 -55.390625 C 19.257812 -56.828125 19.765625 -58.550781 21.203125 -60.5625 C 24.398438 -65.78125 26.414062 -69.566406 27.25 -71.921875 C 27.332031 -72.597656 27.582031 -73.773438 28 -75.453125 C 28.425781 -77.140625 28.640625 -78.695312 28.640625 -80.125 C 28.554688 -80.882812 28.804688 -82.019531 29.390625 -83.53125 C 29.984375 -85.050781 30.578125 -85.679688 31.171875 -85.421875 C 31.503906 -85.253906 32.363281 -84.851562 33.75 -84.21875 C 35.144531 -83.59375 36.28125 -82.859375 37.15625 -82.015625 C 38.039062 -81.179688 38.398438 -80.34375 38.234375 -79.5 C 38.066406 -77.3125 37.519531 -74.804688 36.59375 -71.984375 C 35.664062 -69.171875 35.117188 -67.46875 34.953125 -66.875 C 34.109375 -63.675781 31.796875 -59.9375 28.015625 -55.65625 C 28.015625 -55.476562 27.882812 -55.328125 27.625 -55.203125 C 27.375 -55.078125 27.019531 -54.953125 26.5625 -54.828125 C 26.101562 -54.703125 25.578125 -54.554688 24.984375 -54.390625 Z M 24.984375 -54.390625 "/></g></g></g><g fill="#697e91" fill-opacity="1"><g transform="translate(246.431297, 216.384642)"><g><path d="M 25.234375 1.890625 C 23.210938 1.890625 21.128906 1.46875 18.984375 0.625 C 16.847656 -0.207031 15.039062 -1.234375 13.5625 -2.453125 C 12.09375 -3.679688 11.359375 -4.796875 11.359375 -5.796875 C 11.359375 -6.804688 11.820312 -7.441406 12.75 -7.703125 L 13.375 -8.203125 C 13.539062 -8.285156 13.878906 -8.328125 14.390625 -8.328125 C 14.722656 -8.410156 15.140625 -8.390625 15.640625 -8.265625 C 16.148438 -8.140625 16.570312 -8.078125 16.90625 -8.078125 C 17.5 -7.910156 18.382812 -7.742188 19.5625 -7.578125 L 22.84375 -7.1875 C 24.519531 -7.1875 26.09375 -7.351562 27.5625 -7.6875 C 29.039062 -8.03125 29.78125 -8.410156 29.78125 -8.828125 C 29.78125 -9.085938 29.441406 -9.507812 28.765625 -10.09375 C 28.097656 -10.6875 27.382812 -10.984375 26.625 -10.984375 C 26.625 -11.316406 25.320312 -12.453125 22.71875 -14.390625 C 21.28125 -15.484375 19.910156 -16.578125 18.609375 -17.671875 C 17.304688 -18.765625 16.65625 -19.5625 16.65625 -20.0625 L 16.78125 -20.3125 L 16.78125 -20.953125 C 16.195312 -20.953125 15.648438 -21.75 15.140625 -23.34375 C 14.640625 -24.945312 14.390625 -26.503906 14.390625 -28.015625 C 14.390625 -30.867188 15.648438 -34.019531 18.171875 -37.46875 C 20.691406 -40.925781 23.820312 -44.039062 27.5625 -46.8125 C 31.3125 -49.59375 34.867188 -51.488281 38.234375 -52.5 C 39.492188 -53.082031 41.34375 -53.375 43.78125 -53.375 C 45.382812 -53.375 46.476562 -53.207031 47.0625 -52.875 L 48.078125 -53.125 C 49.085938 -53.125 50.390625 -52.28125 51.984375 -50.59375 C 53.585938 -48.914062 54.597656 -47.570312 55.015625 -46.5625 C 55.015625 -43.789062 54.929688 -41.5625 54.765625 -39.875 C 54.597656 -38.1875 54.175781 -37.34375 53.5 -37.34375 C 53.414062 -37.34375 53.289062 -37.300781 53.125 -37.21875 C 52.957031 -37.132812 52.875 -36.925781 52.875 -36.59375 C 52.875 -35.414062 51.84375 -34.109375 49.78125 -32.671875 C 47.71875 -31.242188 45.847656 -30.53125 44.171875 -30.53125 L 43.65625 -30.65625 C 43.15625 -30.75 42.421875 -31.253906 41.453125 -32.171875 C 40.484375 -33.097656 40 -34.023438 40 -34.953125 C 40 -35.203125 40.503906 -35.875 41.515625 -36.96875 C 42.523438 -38.0625 43.382812 -39.132812 44.09375 -40.1875 C 44.8125 -41.238281 45.171875 -42.351562 45.171875 -43.53125 C 45.171875 -43.957031 45.023438 -44.234375 44.734375 -44.359375 C 44.441406 -44.484375 43.875 -44.546875 43.03125 -44.546875 C 38.40625 -42.441406 35.082031 -40.460938 33.0625 -38.609375 C 32.8125 -38.109375 32.578125 -37.726562 32.359375 -37.46875 C 32.148438 -37.21875 31.878906 -37.09375 31.546875 -37.09375 C 31.546875 -37.09375 31.546875 -37.113281 31.546875 -37.15625 C 31.546875 -37.195312 31.503906 -37.21875 31.421875 -37.21875 C 31.253906 -37.21875 30.707031 -36.734375 29.78125 -35.765625 C 28.851562 -34.804688 27.988281 -33.691406 27.1875 -32.421875 C 26.394531 -31.160156 25.914062 -29.984375 25.75 -28.890625 L 25.484375 -28.515625 L 25.484375 -27.890625 C 25.398438 -27.722656 25.359375 -27.382812 25.359375 -26.875 C 25.359375 -26.125 25.691406 -25.347656 26.359375 -24.546875 C 27.035156 -23.742188 28.382812 -22.628906 30.40625 -21.203125 C 34.195312 -18.335938 36.785156 -16.210938 38.171875 -14.828125 C 39.554688 -13.441406 40.421875 -12.203125 40.765625 -11.109375 C 41.515625 -9.585938 41.890625 -8.238281 41.890625 -7.0625 C 41.890625 -4.207031 40.394531 -2 37.40625 -0.4375 C 34.425781 1.113281 30.367188 1.890625 25.234375 1.890625 Z M 25.234375 1.890625 "/></g></g></g><g fill="#697e91" fill-opacity="1"><g transform="translate(290.589935, 216.384642)"><g/></g></g><g fill="#697e91" fill-opacity="1"><g transform="translate(321.12248, 216.384642)"><g><path d="M 63.46875 7.828125 C 62.375 7.910156 61.382812 7.675781 60.5 7.125 C 59.625 6.582031 59.015625 5.890625 58.671875 5.046875 C 58.253906 4.628906 57.6875 3.703125 56.96875 2.265625 C 56.257812 0.835938 55.820312 -0.335938 55.65625 -1.265625 C 55.3125 -5.296875 55.140625 -8.238281 55.140625 -10.09375 C 55.140625 -12.445312 55.265625 -15.644531 55.515625 -19.6875 C 55.859375 -23.894531 56.46875 -27.550781 57.34375 -30.65625 C 58.226562 -33.769531 59.300781 -37.09375 60.5625 -40.625 C 60.90625 -41.382812 61.160156 -42.015625 61.328125 -42.515625 C 61.492188 -43.023438 61.492188 -43.28125 61.328125 -43.28125 C 60.734375 -43.195312 59.679688 -41.429688 58.171875 -37.984375 C 57.921875 -37.472656 57.601562 -36.796875 57.21875 -35.953125 C 56.84375 -35.117188 56.363281 -34.195312 55.78125 -33.1875 C 53.414062 -27.96875 49.082031 -20.0625 42.78125 -9.46875 C 42.019531 -8.539062 40.96875 -7.066406 39.625 -5.046875 C 37.019531 -1.085938 34.875 1.644531 33.1875 3.15625 C 30.832031 5.425781 28.351562 6.5625 25.75 6.5625 C 24.65625 6.5625 23.429688 6.265625 22.078125 5.671875 C 20.734375 5.503906 19.429688 4.578125 18.171875 2.890625 C 16.910156 1.210938 16.445312 -0.378906 16.78125 -1.890625 C 16.53125 -3.992188 16.757812 -8.304688 17.46875 -14.828125 C 18.1875 -21.347656 18.925781 -26.796875 19.6875 -31.171875 C 20.269531 -35.203125 21.570312 -41.847656 23.59375 -51.109375 L 26.375 -64.734375 C 26.875 -65.992188 27.671875 -68.519531 28.765625 -72.3125 L 29.90625 -76.46875 C 29.988281 -77.8125 30.429688 -78.796875 31.234375 -79.421875 C 32.035156 -80.054688 33.023438 -80.375 34.203125 -80.375 C 35.210938 -80.375 36.175781 -80.1875 37.09375 -79.8125 C 38.019531 -79.4375 38.695312 -78.953125 39.125 -78.359375 C 40.882812 -76.421875 41.765625 -74.316406 41.765625 -72.046875 C 41.765625 -70.703125 41.472656 -69.273438 40.890625 -67.765625 C 37.097656 -58.503906 34.066406 -46.304688 31.796875 -31.171875 C 30.953125 -25.953125 30.210938 -21.03125 29.578125 -16.40625 C 28.953125 -11.78125 28.8125 -9.425781 29.15625 -9.34375 C 30.414062 -9 32.007812 -10.847656 33.9375 -14.890625 C 39.488281 -24.054688 45.84375 -35.625 53 -49.59375 C 53.164062 -49.84375 55.015625 -53.289062 58.546875 -59.9375 L 61.578125 -65.625 L 63.59375 -69.28125 C 65.78125 -73.226562 67.503906 -76.210938 68.765625 -78.234375 C 70.035156 -80.253906 70.960938 -81.390625 71.546875 -81.640625 C 73.648438 -81.640625 75.269531 -81.113281 76.40625 -80.0625 C 77.539062 -79.007812 78.53125 -77.519531 79.375 -75.59375 C 79.539062 -74.914062 79.625 -74.113281 79.625 -73.1875 C 79.625 -72.34375 79.5 -71.546875 79.25 -70.796875 C 79.082031 -70.285156 78.679688 -69.019531 78.046875 -67 C 77.410156 -64.988281 76.882812 -62.972656 76.46875 -60.953125 C 74.875 -56.742188 73.695312 -52.660156 72.9375 -48.703125 C 72.601562 -47.109375 72.265625 -45.550781 71.921875 -44.03125 C 71.585938 -42.519531 71.296875 -41.09375 71.046875 -39.75 C 69.609375 -33.4375 68.53125 -28.175781 67.8125 -23.96875 C 67.101562 -19.769531 66.707031 -16.03125 66.625 -12.75 C 66.539062 -10.5625 66.5625 -9.085938 66.6875 -8.328125 C 66.8125 -7.566406 67.046875 -6.769531 67.390625 -5.9375 C 67.472656 -5.507812 67.679688 -5.296875 68.015625 -5.296875 C 68.515625 -5.296875 69.269531 -5.925781 70.28125 -7.1875 C 71.457031 -8.789062 72.40625 -10.347656 73.125 -11.859375 C 73.84375 -13.378906 74.328125 -14.390625 74.578125 -14.890625 C 75.585938 -17.328125 76.640625 -19.515625 77.734375 -21.453125 C 80.671875 -27.003906 83.84375 -33.394531 87.25 -40.625 C 90.664062 -47.863281 93.59375 -54.34375 96.03125 -60.0625 C 98.46875 -67.039062 100.378906 -72.023438 101.765625 -75.015625 C 103.160156 -78.003906 104.488281 -79.878906 105.75 -80.640625 C 106.25 -80.972656 107.046875 -81.140625 108.140625 -81.140625 C 109.742188 -81.140625 110.921875 -80.800781 111.671875 -80.125 C 111.835938 -80.039062 112.382812 -79.578125 113.3125 -78.734375 C 114.238281 -77.898438 114.660156 -76.9375 114.578125 -75.84375 C 113.816406 -73.226562 111.753906 -67.753906 108.390625 -59.421875 C 105.023438 -51.097656 102.421875 -44.921875 100.578125 -40.890625 C 100.234375 -40.296875 99.554688 -39.160156 98.546875 -37.484375 C 98.378906 -37.222656 98.019531 -36.609375 97.46875 -35.640625 C 96.925781 -34.679688 96.65625 -33.945312 96.65625 -33.4375 C 96.65625 -32.59375 94.445312 -28.195312 90.03125 -20.25 C 85.613281 -12.300781 82.351562 -6.984375 80.25 -4.296875 C 78.320312 -1.847656 76.175781 0.273438 73.8125 2.078125 C 71.457031 3.890625 69.3125 5.300781 67.375 6.3125 C 65.445312 7.320312 64.144531 7.828125 63.46875 7.828125 Z M 63.46875 7.828125 "/></g></g></g><g fill="#697e91" fill-opacity="1"><g transform="translate(411.963137, 216.384642)"><g><path d="M 17.40625 -4.796875 C 15.894531 -5.046875 14.507812 -5.882812 13.25 -7.3125 C 11.988281 -8.75 11.359375 -10.390625 11.359375 -12.234375 C 11.359375 -14.253906 12.617188 -19.429688 15.140625 -27.765625 C 15.566406 -29.953125 16.492188 -32.769531 17.921875 -36.21875 C 18.421875 -37.644531 18.710938 -38.484375 18.796875 -38.734375 C 20.316406 -43.785156 22.378906 -49.972656 24.984375 -57.296875 L 26.125 -60.3125 C 29.0625 -68.3125 30.828125 -73.191406 31.421875 -74.953125 L 33.4375 -80.5 C 33.4375 -81.175781 33.921875 -81.828125 34.890625 -82.453125 C 35.859375 -83.085938 36.675781 -83.40625 37.34375 -83.40625 C 38.695312 -83.40625 40.003906 -82.519531 41.265625 -80.75 C 42.523438 -78.988281 43.195312 -77.140625 43.28125 -75.203125 C 43.28125 -74.191406 43.070312 -73.269531 42.65625 -72.4375 C 40.71875 -68.226562 38.316406 -61.707031 35.453125 -52.875 C 34.191406 -49.175781 32.929688 -45.660156 31.671875 -42.328125 C 30.410156 -39.003906 29.398438 -36.628906 28.640625 -35.203125 L 27.25 -32.4375 L 25.484375 -25.75 C 25.484375 -25.488281 25.441406 -25.273438 25.359375 -25.109375 C 25.273438 -24.941406 25.234375 -24.816406 25.234375 -24.734375 C 25.234375 -24.484375 25.273438 -24.359375 25.359375 -24.359375 L 27.515625 -26.5 C 29.953125 -28.9375 32.851562 -31.414062 36.21875 -33.9375 C 38.988281 -35.875 40.414062 -36.96875 40.5 -37.21875 C 40.582031 -37.476562 40.921875 -37.859375 41.515625 -38.359375 L 42.78125 -39.375 C 45.46875 -41.300781 48.367188 -42.265625 51.484375 -42.265625 C 52.410156 -42.265625 53.503906 -41.800781 54.765625 -40.875 C 56.023438 -39.957031 57.097656 -38.675781 57.984375 -37.03125 C 58.867188 -35.394531 59.3125 -33.648438 59.3125 -31.796875 L 59.3125 -29.90625 C 59.3125 -27.800781 58.910156 -25.046875 58.109375 -21.640625 C 57.304688 -18.234375 56.863281 -16.28125 56.78125 -15.78125 C 57.207031 -15.78125 57.835938 -15.863281 58.671875 -16.03125 C 59.929688 -16.03125 60.832031 -15.898438 61.375 -15.640625 C 61.925781 -15.390625 62.410156 -15.050781 62.828125 -14.625 C 63.253906 -14.207031 63.640625 -13.957031 63.984375 -13.875 C 64.148438 -13.707031 64.234375 -13.457031 64.234375 -13.125 C 64.234375 -11.1875 63.179688 -9.503906 61.078125 -8.078125 C 58.972656 -6.648438 56.953125 -5.847656 55.015625 -5.671875 C 52.660156 -5.671875 50.765625 -6.554688 49.328125 -8.328125 C 47.898438 -10.097656 47.1875 -12.242188 47.1875 -14.765625 C 47.1875 -15.773438 47.226562 -16.785156 47.3125 -17.796875 C 47.40625 -18.804688 47.492188 -19.6875 47.578125 -20.4375 C 47.828125 -22.125 47.953125 -23.472656 47.953125 -24.484375 C 47.953125 -25.578125 47.847656 -26.3125 47.640625 -26.6875 C 47.429688 -27.0625 47.070312 -27.25 46.5625 -27.25 C 44.882812 -27.25 41.960938 -25.710938 37.796875 -22.640625 C 33.628906 -19.578125 29.398438 -15.601562 25.109375 -10.71875 C 22.421875 -6.769531 19.851562 -4.796875 17.40625 -4.796875 Z M 17.40625 -4.796875 "/></g></g></g><g fill="#697e91" fill-opacity="1"><g transform="translate(471.640404, 216.384642)"><g><path d="M 26.625 -52.75 C 25.78125 -53.332031 25.101562 -54.085938 24.59375 -55.015625 C 24.09375 -55.941406 23.800781 -56.820312 23.71875 -57.65625 C 23.632812 -58.5 23.71875 -59.007812 23.96875 -59.1875 C 24.476562 -59.769531 24.984375 -60.566406 25.484375 -61.578125 C 25.992188 -62.585938 26.375 -63.300781 26.625 -63.71875 C 27.300781 -65.238281 27.847656 -66.332031 28.265625 -67 C 28.859375 -68.175781 29.40625 -68.804688 29.90625 -68.890625 C 30.582031 -69.234375 31.128906 -69.40625 31.546875 -69.40625 C 32.640625 -69.40625 33.835938 -69.023438 35.140625 -68.265625 C 36.441406 -67.503906 37.429688 -66.625 38.109375 -65.625 C 38.691406 -64.269531 38.984375 -63.085938 38.984375 -62.078125 C 38.984375 -60.066406 38.019531 -57.835938 36.09375 -55.390625 C 35.25 -54.296875 34.238281 -53.453125 33.0625 -52.859375 C 31.882812 -52.273438 30.707031 -51.984375 29.53125 -51.984375 C 28.351562 -51.984375 27.382812 -52.238281 26.625 -52.75 Z M 13 -2.140625 C 11.820312 -3.316406 11.234375 -5.421875 11.234375 -8.453125 C 11.234375 -10.054688 11.441406 -11.273438 11.859375 -12.109375 C 11.859375 -12.535156 11.941406 -13.039062 12.109375 -13.625 C 12.273438 -14.21875 12.359375 -14.597656 12.359375 -14.765625 C 12.273438 -15.265625 12.613281 -16.648438 13.375 -18.921875 C 14.382812 -21.191406 15.664062 -24.679688 17.21875 -29.390625 C 18.78125 -34.109375 19.851562 -37.476562 20.4375 -39.5 C 20.4375 -39.914062 20.601562 -40.269531 20.9375 -40.5625 C 21.28125 -40.863281 21.789062 -41.054688 22.46875 -41.140625 C 23.382812 -41.472656 24.554688 -41.070312 25.984375 -39.9375 C 27.421875 -38.800781 28.601562 -37.519531 29.53125 -36.09375 C 30.03125 -35.582031 30.28125 -34.910156 30.28125 -34.078125 C 30.28125 -32.804688 29.734375 -31.035156 28.640625 -28.765625 C 28.222656 -27.835938 27.820312 -26.703125 27.4375 -25.359375 C 27.0625 -24.015625 26.75 -22.753906 26.5 -21.578125 C 25.488281 -19.304688 24.691406 -17.203125 24.109375 -15.265625 C 23.847656 -14.171875 23.675781 -13.332031 23.59375 -12.75 C 23.007812 -9.632812 22.460938 -7.613281 21.953125 -6.6875 C 21.453125 -4.582031 20.738281 -3.003906 19.8125 -1.953125 C 18.882812 -0.898438 17.832031 -0.375 16.65625 -0.375 C 15.226562 -0.375 14.007812 -0.960938 13 -2.140625 Z M 13 -2.140625 "/></g></g></g><g fill="#697e91" fill-opacity="1"><g transform="translate(496.369263, 216.384642)"><g><path d="M 25.234375 1.890625 C 23.210938 1.890625 21.128906 1.46875 18.984375 0.625 C 16.847656 -0.207031 15.039062 -1.234375 13.5625 -2.453125 C 12.09375 -3.679688 11.359375 -4.796875 11.359375 -5.796875 C 11.359375 -6.804688 11.820312 -7.441406 12.75 -7.703125 L 13.375 -8.203125 C 13.539062 -8.285156 13.878906 -8.328125 14.390625 -8.328125 C 14.722656 -8.410156 15.140625 -8.390625 15.640625 -8.265625 C 16.148438 -8.140625 16.570312 -8.078125 16.90625 -8.078125 C 17.5 -7.910156 18.382812 -7.742188 19.5625 -7.578125 L 22.84375 -7.1875 C 24.519531 -7.1875 26.09375 -7.351562 27.5625 -7.6875 C 29.039062 -8.03125 29.78125 -8.410156 29.78125 -8.828125 C 29.78125 -9.085938 29.441406 -9.507812 28.765625 -10.09375 C 28.097656 -10.6875 27.382812 -10.984375 26.625 -10.984375 C 26.625 -11.316406 25.320312 -12.453125 22.71875 -14.390625 C 21.28125 -15.484375 19.910156 -16.578125 18.609375 -17.671875 C 17.304688 -18.765625 16.65625 -19.5625 16.65625 -20.0625 L 16.78125 -20.3125 L 16.78125 -20.953125 C 16.195312 -20.953125 15.648438 -21.75 15.140625 -23.34375 C 14.640625 -24.945312 14.390625 -26.503906 14.390625 -28.015625 C 14.390625 -30.867188 15.648438 -34.019531 18.171875 -37.46875 C 20.691406 -40.925781 23.820312 -44.039062 27.5625 -46.8125 C 31.3125 -49.59375 34.867188 -51.488281 38.234375 -52.5 C 39.492188 -53.082031 41.34375 -53.375 43.78125 -53.375 C 45.382812 -53.375 46.476562 -53.207031 47.0625 -52.875 L 48.078125 -53.125 C 49.085938 -53.125 50.390625 -52.28125 51.984375 -50.59375 C 53.585938 -48.914062 54.597656 -47.570312 55.015625 -46.5625 C 55.015625 -43.789062 54.929688 -41.5625 54.765625 -39.875 C 54.597656 -38.1875 54.175781 -37.34375 53.5 -37.34375 C 53.414062 -37.34375 53.289062 -37.300781 53.125 -37.21875 C 52.957031 -37.132812 52.875 -36.925781 52.875 -36.59375 C 52.875 -35.414062 51.84375 -34.109375 49.78125 -32.671875 C 47.71875 -31.242188 45.847656 -30.53125 44.171875 -30.53125 L 43.65625 -30.65625 C 43.15625 -30.75 42.421875 -31.253906 41.453125 -32.171875 C 40.484375 -33.097656 40 -34.023438 40 -34.953125 C 40 -35.203125 40.503906 -35.875 41.515625 -36.96875 C 42.523438 -38.0625 43.382812 -39.132812 44.09375 -40.1875 C 44.8125 -41.238281 45.171875 -42.351562 45.171875 -43.53125 C 45.171875 -43.957031 45.023438 -44.234375 44.734375 -44.359375 C 44.441406 -44.484375 43.875 -44.546875 43.03125 -44.546875 C 38.40625 -42.441406 35.082031 -40.460938 33.0625 -38.609375 C 32.8125 -38.109375 32.578125 -37.726562 32.359375 -37.46875 C 32.148438 -37.21875 31.878906 -37.09375 31.546875 -37.09375 C 31.546875 -37.09375 31.546875 -37.113281 31.546875 -37.15625 C 31.546875 -37.195312 31.503906 -37.21875 31.421875 -37.21875 C 31.253906 -37.21875 30.707031 -36.734375 29.78125 -35.765625 C 28.851562 -34.804688 27.988281 -33.691406 27.1875 -32.421875 C 26.394531 -31.160156 25.914062 -29.984375 25.75 -28.890625 L 25.484375 -28.515625 L 25.484375 -27.890625 C 25.398438 -27.722656 25.359375 -27.382812 25.359375 -26.875 C 25.359375 -26.125 25.691406 -25.347656 26.359375 -24.546875 C 27.035156 -23.742188 28.382812 -22.628906 30.40625 -21.203125 C 34.195312 -18.335938 36.785156 -16.210938 38.171875 -14.828125 C 39.554688 -13.441406 40.421875 -12.203125 40.765625 -11.109375 C 41.515625 -9.585938 41.890625 -8.238281 41.890625 -7.0625 C 41.890625 -4.207031 40.394531 -2 37.40625 -0.4375 C 34.425781 1.113281 30.367188 1.890625 25.234375 1.890625 Z M 25.234375 1.890625 "/></g></g></g><g fill="#697e91" fill-opacity="1"><g transform="translate(540.527901, 216.384642)"><g><path d="M 6.5625 29.53125 C 5.71875 29.53125 5.085938 29.148438 4.671875 28.390625 C 4.585938 28.304688 4.207031 27.800781 3.53125 26.875 C 2.863281 25.945312 2.53125 24.601562 2.53125 22.84375 C 2.53125 22.5 2.613281 21.828125 2.78125 20.828125 C 3.707031 17.285156 4.171875 14.84375 4.171875 13.5 C 4.171875 13.082031 4.253906 12.472656 4.421875 11.671875 C 4.585938 10.867188 4.710938 10.132812 4.796875 9.46875 C 5.128906 8.875 5.441406 7.96875 5.734375 6.75 C 6.035156 5.53125 6.1875 4.457031 6.1875 3.53125 C 6.1875 3.113281 6.332031 2.628906 6.625 2.078125 C 6.914062 1.535156 7.273438 1.09375 7.703125 0.75 C 7.703125 0.25 7.828125 -0.523438 8.078125 -1.578125 C 8.328125 -2.628906 8.492188 -3.363281 8.578125 -3.78125 C 9.003906 -6.050781 10.644531 -11.4375 13.5 -19.9375 C 16.363281 -28.4375 18.804688 -35.289062 20.828125 -40.5 C 21.828125 -42.863281 22.664062 -45.050781 23.34375 -47.0625 C 24.019531 -49.082031 24.359375 -50.515625 24.359375 -51.359375 C 24.359375 -51.691406 24.460938 -52.003906 24.671875 -52.296875 C 24.878906 -52.597656 25.238281 -53 25.75 -53.5 C 26.414062 -54.175781 27.296875 -54.515625 28.390625 -54.515625 C 29.816406 -54.515625 31.207031 -54.050781 32.5625 -53.125 C 33.144531 -52.195312 33.5625 -51.394531 33.8125 -50.71875 C 34.070312 -50.050781 34.203125 -49.296875 34.203125 -48.453125 C 34.203125 -48.203125 34.113281 -47.40625 33.9375 -46.0625 C 33.9375 -44.289062 33.429688 -42.691406 32.421875 -41.265625 C 31.421875 -39.835938 30.960938 -39.164062 31.046875 -39.25 C 35.160156 -41.769531 38.988281 -43.03125 42.53125 -43.03125 C 46.3125 -43.03125 49.335938 -41.703125 51.609375 -39.046875 C 53.878906 -36.398438 55.015625 -33.269531 55.015625 -29.65625 C 55.015625 -28.226562 54.34375 -26.101562 53 -23.28125 C 51.65625 -20.457031 50.5625 -18.671875 49.71875 -17.921875 C 49.207031 -17.921875 48.535156 -17.035156 47.703125 -15.265625 C 46.691406 -13.921875 44.773438 -12.507812 41.953125 -11.03125 C 39.140625 -9.5625 37.226562 -9 36.21875 -9.34375 C 36.132812 -9.34375 36.003906 -9.234375 35.828125 -9.015625 C 35.660156 -8.804688 35.578125 -8.535156 35.578125 -8.203125 C 35.578125 -7.867188 34.316406 -7.28125 31.796875 -6.4375 C 29.273438 -5.59375 27.085938 -5.171875 25.234375 -5.171875 C 24.222656 -5.171875 23.460938 -5.234375 22.953125 -5.359375 C 22.453125 -5.484375 21.953125 -5.757812 21.453125 -6.1875 C 20.859375 -5.59375 20.5625 -5.046875 20.5625 -4.546875 C 20.5625 -3.703125 20.140625 -2.375 19.296875 -0.5625 C 18.460938 1.238281 17.789062 2.140625 17.28125 2.140625 C 17.195312 2.222656 17.09375 2.390625 16.96875 2.640625 C 16.84375 2.898438 16.945312 3.195312 17.28125 3.53125 C 17.28125 3.78125 17.238281 4.367188 17.15625 5.296875 C 17.070312 6.222656 16.863281 6.9375 16.53125 7.4375 C 16.53125 8.195312 16.40625 9.226562 16.15625 10.53125 C 15.90625 11.84375 15.609375 12.832031 15.265625 13.5 C 15.265625 14.507812 15.117188 15.5 14.828125 16.46875 C 14.535156 17.4375 14.21875 17.921875 13.875 17.921875 C 13.375 18.085938 13.125 19.304688 13.125 21.578125 C 13.039062 23.597656 12.390625 25.40625 11.171875 27 C 9.953125 28.601562 8.796875 29.40625 7.703125 29.40625 Z M 23.84375 -14.765625 C 25.019531 -14.765625 27.226562 -15.414062 30.46875 -16.71875 C 33.707031 -18.019531 36.085938 -19.300781 37.609375 -20.5625 C 39.535156 -22.164062 41.003906 -23.640625 42.015625 -24.984375 C 43.023438 -26.328125 43.53125 -27.671875 43.53125 -29.015625 C 43.53125 -30.203125 43.15625 -31.34375 42.40625 -32.4375 C 41.8125 -33.351562 40.925781 -33.8125 39.75 -33.8125 C 36.96875 -33.8125 33.347656 -31.664062 28.890625 -27.375 C 27.378906 -25.78125 26.035156 -23.785156 24.859375 -21.390625 C 23.679688 -18.992188 23.09375 -17.164062 23.09375 -15.90625 C 23.09375 -15.144531 23.34375 -14.765625 23.84375 -14.765625 Z M 23.84375 -14.765625 "/></g></g></g><g fill="#697e91" fill-opacity="1"><g transform="translate(588.219242, 216.384642)"><g><path d="M 28.140625 0 C 23.347656 0 19.476562 -1.34375 16.53125 -4.03125 C 13.582031 -6.726562 12.109375 -10.554688 12.109375 -15.515625 C 12.109375 -17.453125 12.238281 -19.597656 12.5 -21.953125 C 12.664062 -23.972656 13.484375 -26.75 14.953125 -30.28125 C 16.421875 -33.8125 18.4375 -37.257812 21 -40.625 C 23.570312 -44 26.582031 -46.484375 30.03125 -48.078125 C 31.632812 -48.835938 32.984375 -49.363281 34.078125 -49.65625 C 35.171875 -49.945312 36.429688 -50.09375 37.859375 -50.09375 C 41.304688 -50.09375 44.101562 -49.460938 46.25 -48.203125 C 48.394531 -46.941406 49.90625 -45.507812 50.78125 -43.90625 C 51.664062 -42.3125 52.109375 -40.925781 52.109375 -39.75 L 52.109375 -38.734375 C 52.109375 -37.722656 51.519531 -35.875 50.34375 -33.1875 C 49.164062 -30.5 47.296875 -27.972656 44.734375 -25.609375 C 42.171875 -23.253906 38.867188 -21.953125 34.828125 -21.703125 C 32.804688 -21.703125 30.847656 -21.890625 28.953125 -22.265625 C 27.066406 -22.648438 25.867188 -22.84375 25.359375 -22.84375 C 24.097656 -22.84375 23.300781 -22.378906 22.96875 -21.453125 C 22.632812 -20.523438 22.46875 -18.96875 22.46875 -16.78125 C 22.71875 -14.425781 23.367188 -12.785156 24.421875 -11.859375 C 25.472656 -10.929688 27.003906 -10.46875 29.015625 -10.46875 C 30.023438 -10.46875 31.207031 -10.765625 32.5625 -11.359375 C 33.90625 -12.023438 35.5 -13.078125 37.34375 -14.515625 C 38.351562 -15.359375 39.148438 -15.945312 39.734375 -16.28125 C 40.328125 -16.613281 41.046875 -16.78125 41.890625 -16.78125 C 42.648438 -16.78125 43.535156 -16.273438 44.546875 -15.265625 C 45.554688 -14.253906 46.101562 -13.285156 46.1875 -12.359375 C 46.019531 -11.359375 45.09375 -9.847656 43.40625 -7.828125 C 41.726562 -5.804688 39.539062 -3.992188 36.84375 -2.390625 C 34.15625 -0.796875 31.253906 0 28.140625 0 Z M 32.5625 -30.40625 C 34.15625 -30.40625 35.25 -30.578125 35.84375 -30.921875 C 36.675781 -31.335938 37.953125 -32.40625 39.671875 -34.125 C 41.398438 -35.851562 42.3125 -37.054688 42.40625 -37.734375 C 42.40625 -38.566406 42.046875 -39.253906 41.328125 -39.796875 C 40.609375 -40.347656 39.617188 -40.710938 38.359375 -40.890625 L 36.96875 -40.890625 C 35.875 -40.890625 34.296875 -39.984375 32.234375 -38.171875 C 30.179688 -36.359375 28.394531 -34.273438 26.875 -31.921875 C 26.957031 -31.503906 27.585938 -31.144531 28.765625 -30.84375 C 29.941406 -30.550781 31.207031 -30.40625 32.5625 -30.40625 Z M 32.5625 -30.40625 "/></g></g></g><g fill="#697e91" fill-opacity="1"><g transform="translate(630.359239, 216.384642)"><g><path d="M 15.015625 -3.40625 C 13.835938 -4.332031 12.910156 -5.210938 12.234375 -6.046875 C 11.566406 -6.890625 11.359375 -8.070312 11.609375 -9.59375 C 11.859375 -12.445312 12.488281 -15.769531 13.5 -19.5625 L 14.140625 -22.078125 C 14.390625 -24.347656 15.710938 -28.828125 18.109375 -35.515625 C 20.503906 -42.203125 22.503906 -46.726562 24.109375 -49.09375 C 24.941406 -49.925781 26.367188 -50.34375 28.390625 -50.34375 C 30.078125 -50.34375 31.253906 -50.007812 31.921875 -49.34375 C 32.597656 -48.832031 32.9375 -47.988281 32.9375 -46.8125 C 32.9375 -44.875 31.71875 -41.46875 29.28125 -36.59375 L 28.015625 -33.9375 C 27.421875 -32.84375 26.9375 -31.832031 26.5625 -30.90625 C 26.1875 -29.988281 26.207031 -29.570312 26.625 -29.65625 C 27.550781 -31.25 29.800781 -33.429688 33.375 -36.203125 C 36.945312 -38.984375 39.410156 -40.710938 40.765625 -41.390625 C 41.347656 -41.722656 42.101562 -42.054688 43.03125 -42.390625 C 43.957031 -42.734375 44.585938 -42.988281 44.921875 -43.15625 C 46.429688 -43.914062 48.15625 -44.296875 50.09375 -44.296875 C 51.4375 -44.296875 52.59375 -44.101562 53.5625 -43.71875 C 54.53125 -43.34375 55.179688 -42.773438 55.515625 -42.015625 C 55.609375 -41.429688 55.84375 -40.96875 56.21875 -40.625 C 56.59375 -40.289062 56.863281 -40.082031 57.03125 -40 C 57.289062 -40 57.460938 -39.894531 57.546875 -39.6875 C 57.628906 -39.476562 57.671875 -39.332031 57.671875 -39.25 C 57.671875 -38.570312 57.082031 -37.707031 55.90625 -36.65625 C 54.726562 -35.601562 53.503906 -35.035156 52.234375 -34.953125 C 51.316406 -34.867188 50.351562 -34.65625 49.34375 -34.3125 C 48.332031 -33.976562 47.320312 -33.5625 46.3125 -33.0625 L 43.03125 -31.171875 C 40.164062 -29.734375 37.742188 -28.320312 35.765625 -26.9375 C 33.796875 -25.550781 31.800781 -23.765625 29.78125 -21.578125 C 29.363281 -21.160156 28.753906 -20.570312 27.953125 -19.8125 C 27.148438 -19.050781 26.457031 -18.164062 25.875 -17.15625 C 25.28125 -16.570312 24.664062 -15.035156 24.03125 -12.546875 C 23.40625 -10.066406 23.09375 -8.535156 23.09375 -7.953125 C 23.007812 -7.703125 22.835938 -7.195312 22.578125 -6.4375 C 22.328125 -5.675781 21.953125 -5.003906 21.453125 -4.421875 C 20.691406 -3.492188 20.054688 -2.816406 19.546875 -2.390625 C 19.046875 -1.972656 18.503906 -1.765625 17.921875 -1.765625 C 17.078125 -1.765625 16.109375 -2.3125 15.015625 -3.40625 Z M 15.015625 -3.40625 "/></g></g></g><g fill="#697e91" fill-opacity="1"><g transform="translate(675.779567, 216.384642)"><g><path d="M 25.234375 1.890625 C 23.210938 1.890625 21.128906 1.46875 18.984375 0.625 C 16.847656 -0.207031 15.039062 -1.234375 13.5625 -2.453125 C 12.09375 -3.679688 11.359375 -4.796875 11.359375 -5.796875 C 11.359375 -6.804688 11.820312 -7.441406 12.75 -7.703125 L 13.375 -8.203125 C 13.539062 -8.285156 13.878906 -8.328125 14.390625 -8.328125 C 14.722656 -8.410156 15.140625 -8.390625 15.640625 -8.265625 C 16.148438 -8.140625 16.570312 -8.078125 16.90625 -8.078125 C 17.5 -7.910156 18.382812 -7.742188 19.5625 -7.578125 L 22.84375 -7.1875 C 24.519531 -7.1875 26.09375 -7.351562 27.5625 -7.6875 C 29.039062 -8.03125 29.78125 -8.410156 29.78125 -8.828125 C 29.78125 -9.085938 29.441406 -9.507812 28.765625 -10.09375 C 28.097656 -10.6875 27.382812 -10.984375 26.625 -10.984375 C 26.625 -11.316406 25.320312 -12.453125 22.71875 -14.390625 C 21.28125 -15.484375 19.910156 -16.578125 18.609375 -17.671875 C 17.304688 -18.765625 16.65625 -19.5625 16.65625 -20.0625 L 16.78125 -20.3125 L 16.78125 -20.953125 C 16.195312 -20.953125 15.648438 -21.75 15.140625 -23.34375 C 14.640625 -24.945312 14.390625 -26.503906 14.390625 -28.015625 C 14.390625 -30.867188 15.648438 -34.019531 18.171875 -37.46875 C 20.691406 -40.925781 23.820312 -44.039062 27.5625 -46.8125 C 31.3125 -49.59375 34.867188 -51.488281 38.234375 -52.5 C 39.492188 -53.082031 41.34375 -53.375 43.78125 -53.375 C 45.382812 -53.375 46.476562 -53.207031 47.0625 -52.875 L 48.078125 -53.125 C 49.085938 -53.125 50.390625 -52.28125 51.984375 -50.59375 C 53.585938 -48.914062 54.597656 -47.570312 55.015625 -46.5625 C 55.015625 -43.789062 54.929688 -41.5625 54.765625 -39.875 C 54.597656 -38.1875 54.175781 -37.34375 53.5 -37.34375 C 53.414062 -37.34375 53.289062 -37.300781 53.125 -37.21875 C 52.957031 -37.132812 52.875 -36.925781 52.875 -36.59375 C 52.875 -35.414062 51.84375 -34.109375 49.78125 -32.671875 C 47.71875 -31.242188 45.847656 -30.53125 44.171875 -30.53125 L 43.65625 -30.65625 C 43.15625 -30.75 42.421875 -31.253906 41.453125 -32.171875 C 40.484375 -33.097656 40 -34.023438 40 -34.953125 C 40 -35.203125 40.503906 -35.875 41.515625 -36.96875 C 42.523438 -38.0625 43.382812 -39.132812 44.09375 -40.1875 C 44.8125 -41.238281 45.171875 -42.351562 45.171875 -43.53125 C 45.171875 -43.957031 45.023438 -44.234375 44.734375 -44.359375 C 44.441406 -44.484375 43.875 -44.546875 43.03125 -44.546875 C 38.40625 -42.441406 35.082031 -40.460938 33.0625 -38.609375 C 32.8125 -38.109375 32.578125 -37.726562 32.359375 -37.46875 C 32.148438 -37.21875 31.878906 -37.09375 31.546875 -37.09375 C 31.546875 -37.09375 31.546875 -37.113281 31.546875 -37.15625 C 31.546875 -37.195312 31.503906 -37.21875 31.421875 -37.21875 C 31.253906 -37.21875 30.707031 -36.734375 29.78125 -35.765625 C 28.851562 -34.804688 27.988281 -33.691406 27.1875 -32.421875 C 26.394531 -31.160156 25.914062 -29.984375 25.75 -28.890625 L 25.484375 -28.515625 L 25.484375 -27.890625 C 25.398438 -27.722656 25.359375 -27.382812 25.359375 -26.875 C 25.359375 -26.125 25.691406 -25.347656 26.359375 -24.546875 C 27.035156 -23.742188 28.382812 -22.628906 30.40625 -21.203125 C 34.195312 -18.335938 36.785156 -16.210938 38.171875 -14.828125 C 39.554688 -13.441406 40.421875 -12.203125 40.765625 -11.109375 C 41.515625 -9.585938 41.890625 -8.238281 41.890625 -7.0625 C 41.890625 -4.207031 40.394531 -2 37.40625 -0.4375 C 34.425781 1.113281 30.367188 1.890625 25.234375 1.890625 Z M 25.234375 1.890625 "/></g></g></g><g clip-path="url(#c195077398)"><g clip-path="url(#db3ade7db4)"><g clip-path="url(#115efd38da)"><path fill="#ffc29e" d="M 314.816406 96.339844 C 315.609375 89.886719 311.828125 83.238281 306 80.457031 C 302.261719 78.664062 297.6875 78.269531 293.722656 79.5625 C 293.671875 78.96875 293.59375 78.375 293.484375 77.792969 C 292.234375 70.738281 286.570312 65.078125 280.0625 62.460938 C 278.78125 61.9375 277.46875 61.511719 276.136719 61.167969 C 272.332031 59.988281 268.542969 60.753906 264.949219 62.035156 C 255.589844 65.359375 247.082031 72.414062 236.738281 71.554688 C 236.558594 71.535156 236.386719 71.640625 236.332031 71.820312 C 236.273438 72.015625 236.382812 72.222656 236.582031 72.277344 C 238.253906 72.816406 240.003906 73.082031 241.765625 73.117188 C 247.019531 73.199219 252.179688 71.355469 256.933594 69.46875 C 262.441406 67.441406 269.261719 63.535156 274.886719 65.199219 C 281.925781 66.875 288.613281 71.390625 291.121094 78.425781 C 291.355469 79.066406 291.558594 79.722656 291.71875 80.390625 C 290.640625 80.941406 289.636719 81.636719 288.742188 82.484375 C 287.652344 83.558594 286.824219 84.957031 286.582031 86.441406 C 286.558594 86.601562 286.636719 86.765625 286.789062 86.835938 C 286.976562 86.925781 287.203125 86.847656 287.289062 86.65625 C 287.867188 85.453125 288.78125 84.507812 289.84375 83.804688 C 290.5625 83.355469 291.320312 82.984375 292.117188 82.691406 C 292.640625 82.496094 293.175781 82.335938 293.722656 82.207031 C 298.476562 81.082031 303.929688 82.417969 307.375 85.746094 C 309.769531 88.078125 311.21875 91.398438 311.132812 94.742188 C 311.066406 96.320312 310.671875 97.859375 310.226562 99.359375 C 308.875 103.847656 305.765625 107.78125 301.242188 109.148438 C 298.515625 110 295.605469 110.277344 292.757812 109.976562 C 287.367188 109.535156 283.597656 106.75 279.449219 104.109375 C 283.058594 103.441406 286.820312 101.410156 287.617188 97.628906 C 287.699219 97.230469 287.148438 97.011719 286.933594 97.355469 C 285.539062 99.429688 283.460938 100.539062 281.132812 101.210938 C 279.542969 101.679688 277.898438 101.859375 276.277344 102.21875 C 276.273438 102.21875 276.273438 102.21875 276.273438 102.21875 C 275.726562 101.921875 275.164062 101.632812 274.585938 101.363281 C 273.195312 100.722656 271.773438 100.191406 270.332031 99.761719 C 270.332031 99.757812 270.328125 99.757812 270.328125 99.757812 C 273.84375 98.101562 276.878906 95.039062 278.261719 91.6875 C 279.011719 89.949219 279.484375 87.957031 279.027344 86.082031 C 278.925781 85.660156 278.292969 85.742188 278.292969 86.167969 C 278.234375 87.863281 277.535156 89.449219 276.652344 90.867188 C 274.308594 94.78125 270.285156 97.414062 265.929688 98.527344 C 265.796875 98.570312 265.664062 98.601562 265.53125 98.640625 C 263.859375 98.355469 262.167969 98.164062 260.46875 98.039062 C 260.597656 97.941406 260.726562 97.84375 260.851562 97.742188 C 263.089844 95.945312 264.832031 93.3125 265.214844 90.46875 C 265.238281 90.308594 265.152344 90.148438 265 90.078125 C 264.808594 89.992188 264.582031 90.082031 264.503906 90.277344 C 264.160156 91.046875 263.75 91.765625 263.28125 92.433594 C 261.871094 94.382812 259.882812 95.875 257.667969 96.773438 C 252.015625 99.09375 244.5625 97.03125 240.003906 93.261719 C 237.566406 91.109375 235.957031 88.0625 234.09375 85.308594 C 233.863281 84.972656 233.34375 85.199219 233.410156 85.589844 C 233.738281 87.328125 234.207031 89.03125 234.886719 90.710938 C 236.269531 94.242188 238.589844 96.699219 241.664062 98.378906 C 240.429688 98.542969 239.203125 98.769531 238 99.089844 C 234.816406 99.902344 231.574219 101.347656 228.347656 100.839844 C 221.109375 100.511719 216.1875 89.121094 215.859375 82.78125 C 215.511719 77.371094 218.90625 71.964844 224.023438 70.042969 C 230.507812 67.554688 237.789062 69.050781 244.632812 67.628906 C 247.785156 67.0625 250.675781 65.523438 253.585938 64.328125 C 254.003906 64.15625 253.808594 63.523438 253.359375 63.625 C 250.339844 64.417969 247.460938 65.621094 244.363281 65.902344 C 239.769531 66.390625 235.003906 65.746094 230.308594 65.902344 C 227.003906 65.984375 223.523438 66.554688 220.558594 68.167969 C 215.476562 70.84375 212.1875 76.449219 212.203125 82.207031 C 212.167969 88.011719 215.042969 95.226562 218.769531 99.664062 C 221.03125 102.382812 224.316406 104.613281 228.011719 104.828125 C 228.976562 104.980469 229.9375 105.003906 230.867188 104.941406 C 230.660156 109.441406 230.351562 113.941406 229.859375 118.410156 C 229.578125 121.085938 229.058594 124.261719 228.515625 126.902344 C 228.515625 126.902344 232.042969 125.996094 232.042969 125.996094 C 235.453125 125.140625 239.195312 124.90625 242.769531 124.835938 C 252.566406 124.769531 266.816406 126.078125 275.234375 131.226562 C 275.394531 131.332031 275.609375 131.296875 275.730469 131.144531 C 275.855469 130.984375 275.824219 130.75 275.664062 130.625 C 267.464844 124.542969 252.992188 121.902344 242.882812 121.066406 C 239.96875 120.867188 237.097656 120.761719 234.191406 120.964844 C 234.613281 115.417969 234.636719 109.875 234.582031 104.316406 C 234.582031 104.316406 234.582031 104.316406 234.585938 104.316406 C 236.738281 103.78125 238.730469 103.074219 240.929688 102.691406 C 243.5625 102.234375 246.273438 102.179688 248.988281 102.113281 C 253.09375 102.019531 257.269531 101.984375 261.316406 102.394531 C 265.953125 102.859375 270.457031 103.910156 274.53125 106.140625 C 276.90625 107.453125 279.089844 109.046875 281.445312 110.445312 C 280.214844 114.652344 279.402344 119.058594 278.476562 123.34375 C 274.621094 121.195312 270.46875 119.640625 266.226562 118.472656 C 261.007812 117.101562 255.472656 116.390625 250.132812 117.363281 C 249.949219 117.398438 249.816406 117.5625 249.832031 117.753906 C 249.84375 117.957031 250.023438 118.113281 250.226562 118.097656 C 252.835938 117.917969 255.441406 118.175781 257.984375 118.691406 C 264.296875 120.015625 270.300781 122.746094 275.636719 126.324219 C 276.683594 127.039062 277.683594 127.800781 278.597656 128.589844 C 278.597656 128.589844 281.34375 130.589844 281.34375 130.589844 C 281.542969 129.71875 282.203125 127.054688 282.371094 126.214844 C 283.285156 121.742188 284.015625 116.859375 285.15625 112.347656 C 290.609375 114.628906 296.894531 114.894531 302.511719 113.03125 C 309.867188 110.652344 313.867188 103.664062 314.816406 96.339844 Z M 314.816406 96.339844 " fill-opacity="1" fill-rule="nonzero"/></g></g></g></svg>