<svg xmlns="http://www.w3.org/2000/svg" xmlns:xlink="http://www.w3.org/1999/xlink" width="500" zoomAndPan="magnify" viewBox="0 0 375 374.999991" height="500" preserveAspectRatio="xMidYMid meet" version="1.0"><defs><g/><clipPath id="596f046dc4"><path d="M 116 148 L 162 148 L 162 180 L 116 180 Z M 116 148 " clip-rule="nonzero"/></clipPath><clipPath id="383a57d299"><path d="M 118.890625 143.746094 L 163.859375 152.167969 L 157.921875 183.863281 L 112.953125 175.445312 Z M 118.890625 143.746094 " clip-rule="nonzero"/></clipPath><clipPath id="9f5a69450d"><path d="M 118.890625 143.746094 L 163.859375 152.167969 L 157.921875 183.863281 L 112.953125 175.445312 Z M 118.890625 143.746094 " clip-rule="nonzero"/></clipPath></defs><rect x="-37.5" width="450" fill="#ffffff" y="-37.499999" height="449.999989" fill-opacity="1"/><rect x="-37.5" width="450" fill="#f2f6fa" y="-37.499999" height="449.999989" fill-opacity="1"/><g fill="#697e91" fill-opacity="1"><g transform="translate(37.52344, 216.233511)"><g><path d="M 12.890625 3.625 C 11.753906 3.21875 10.664062 2.628906 9.625 1.859375 C 8.582031 1.097656 7.820312 0.128906 7.34375 -1.046875 C 6.757812 -2.691406 6.46875 -4.628906 6.46875 -6.859375 C 6.46875 -9.015625 6.59375 -10.847656 6.84375 -12.359375 C 7.101562 -13.878906 7.546875 -15.425781 8.171875 -17 L 8.671875 -18.15625 C 9.253906 -19.65625 9.671875 -20.644531 9.921875 -21.125 C 10.546875 -22.550781 11.644531 -24.394531 13.21875 -26.65625 C 14.6875 -28.851562 15.847656 -30.488281 16.703125 -31.5625 C 17.566406 -32.644531 18.453125 -33.578125 19.359375 -34.359375 C 20.273438 -35.148438 21.613281 -36.148438 23.375 -37.359375 C 24.4375 -38.128906 25.734375 -38.515625 27.265625 -38.515625 C 28.472656 -38.515625 29.578125 -38.21875 30.578125 -37.625 C 31.585938 -37.039062 32.347656 -36.128906 32.859375 -34.890625 C 33.222656 -34.265625 33.40625 -33.40625 33.40625 -32.3125 C 33.40625 -30.550781 32.984375 -28.644531 32.140625 -26.59375 C 31.304688 -24.550781 30.300781 -23 29.125 -21.9375 C 28.875 -21.6875 28.53125 -21.5625 28.09375 -21.5625 C 27.65625 -21.5625 27.175781 -21.6875 26.65625 -21.9375 C 26.144531 -22.195312 25.691406 -22.507812 25.296875 -22.875 C 24.960938 -23.5 24.773438 -23.863281 24.734375 -23.96875 C 24.703125 -24.082031 24.78125 -24.15625 24.96875 -24.1875 C 25.289062 -24.59375 25.769531 -25.367188 26.40625 -26.515625 C 27.050781 -27.671875 27.484375 -28.578125 27.703125 -29.234375 L 28.03125 -30.78125 C 28.25 -31.726562 28.359375 -32.347656 28.359375 -32.640625 C 28.359375 -32.972656 28.234375 -33.265625 27.984375 -33.515625 C 27.867188 -33.628906 27.722656 -33.6875 27.546875 -33.6875 C 27.242188 -33.6875 26.726562 -33.503906 26 -33.140625 C 25.15625 -32.773438 24.15625 -32.03125 23 -30.90625 C 21.851562 -29.789062 20.710938 -28.46875 19.578125 -26.9375 C 17.898438 -24.738281 16.613281 -22.925781 15.71875 -21.5 C 14.820312 -20.070312 14.132812 -18.628906 13.65625 -17.171875 L 13.0625 -15.75 C 13.09375 -15.601562 13.035156 -15.234375 12.890625 -14.640625 C 12.742188 -14.054688 12.578125 -13.582031 12.390625 -13.21875 C 11.878906 -11.101562 11.625 -9.179688 11.625 -7.453125 C 11.625 -6.109375 11.757812 -4.941406 12.03125 -3.953125 C 12.3125 -2.960938 12.707031 -2.226562 13.21875 -1.75 C 13.507812 -1.5 13.929688 -1.375 14.484375 -1.375 C 15.066406 -1.375 15.734375 -1.507812 16.484375 -1.78125 C 17.234375 -2.050781 18.03125 -2.367188 18.875 -2.734375 C 19.71875 -3.109375 20.300781 -3.367188 20.625 -3.515625 C 21.46875 -3.835938 22.265625 -4.21875 23.015625 -4.65625 C 23.765625 -5.101562 24.320312 -5.507812 24.6875 -5.875 C 25.632812 -6.5625 26.398438 -6.90625 26.984375 -6.90625 C 27.460938 -7.050781 27.835938 -6.90625 28.109375 -6.46875 C 28.390625 -6.03125 28.53125 -5.425781 28.53125 -4.65625 C 28.53125 -4.144531 28.179688 -3.53125 27.484375 -2.8125 C 26.785156 -2.101562 25.960938 -1.476562 25.015625 -0.9375 C 24.609375 -0.53125 23.710938 -0.0507812 22.328125 0.5 C 21.160156 1.332031 19.796875 2.078125 18.234375 2.734375 C 16.679688 3.398438 15.265625 3.734375 13.984375 3.734375 C 13.691406 3.734375 13.328125 3.695312 12.890625 3.625 Z M 12.890625 3.625 "/></g></g></g><g fill="#697e91" fill-opacity="1"><g transform="translate(64.457474, 216.233511)"><g><path d="M 7.578125 -2.078125 C 6.910156 -2.191406 6.300781 -2.554688 5.75 -3.171875 C 5.207031 -3.796875 4.9375 -4.515625 4.9375 -5.328125 C 4.9375 -6.203125 5.484375 -8.445312 6.578125 -12.0625 C 6.765625 -13.019531 7.171875 -14.25 7.796875 -15.75 C 8.015625 -16.363281 8.140625 -16.726562 8.171875 -16.84375 C 8.828125 -19.039062 9.722656 -21.726562 10.859375 -24.90625 L 11.359375 -26.21875 C 12.640625 -29.695312 13.40625 -31.820312 13.65625 -32.59375 L 14.53125 -35 C 14.53125 -35.289062 14.738281 -35.570312 15.15625 -35.84375 C 15.582031 -36.125 15.941406 -36.265625 16.234375 -36.265625 C 16.816406 -36.265625 17.382812 -35.878906 17.9375 -35.109375 C 18.488281 -34.335938 18.78125 -33.535156 18.8125 -32.703125 C 18.8125 -32.253906 18.722656 -31.847656 18.546875 -31.484375 C 17.703125 -29.660156 16.660156 -26.828125 15.421875 -22.984375 C 14.867188 -21.378906 14.316406 -19.851562 13.765625 -18.40625 C 13.222656 -16.957031 12.785156 -15.925781 12.453125 -15.3125 L 11.84375 -14.09375 L 11.078125 -11.1875 C 11.078125 -11.082031 11.054688 -10.992188 11.015625 -10.921875 C 10.984375 -10.847656 10.96875 -10.789062 10.96875 -10.75 C 10.96875 -10.644531 10.988281 -10.59375 11.03125 -10.59375 L 11.953125 -11.515625 C 13.015625 -12.578125 14.28125 -13.65625 15.75 -14.75 C 16.957031 -15.59375 17.578125 -16.066406 17.609375 -16.171875 C 17.648438 -16.285156 17.796875 -16.453125 18.046875 -16.671875 L 18.59375 -17.109375 C 19.769531 -17.953125 21.03125 -18.375 22.375 -18.375 C 22.78125 -18.375 23.253906 -18.171875 23.796875 -17.765625 C 24.347656 -17.367188 24.816406 -16.8125 25.203125 -16.09375 C 25.585938 -15.382812 25.78125 -14.628906 25.78125 -13.828125 L 25.78125 -13 C 25.78125 -12.082031 25.601562 -10.882812 25.25 -9.40625 C 24.90625 -7.925781 24.71875 -7.078125 24.6875 -6.859375 C 24.875 -6.859375 25.148438 -6.894531 25.515625 -6.96875 C 26.054688 -6.96875 26.445312 -6.910156 26.6875 -6.796875 C 26.925781 -6.691406 27.132812 -6.546875 27.3125 -6.359375 C 27.5 -6.179688 27.664062 -6.070312 27.8125 -6.03125 C 27.882812 -5.957031 27.921875 -5.847656 27.921875 -5.703125 C 27.921875 -4.859375 27.460938 -4.125 26.546875 -3.5 C 25.640625 -2.882812 24.765625 -2.539062 23.921875 -2.46875 C 22.890625 -2.46875 22.0625 -2.847656 21.4375 -3.609375 C 20.820312 -4.378906 20.515625 -5.316406 20.515625 -6.421875 C 20.515625 -6.859375 20.53125 -7.296875 20.5625 -7.734375 C 20.601562 -8.171875 20.644531 -8.554688 20.6875 -8.890625 C 20.789062 -9.617188 20.84375 -10.203125 20.84375 -10.640625 C 20.84375 -11.117188 20.796875 -11.4375 20.703125 -11.59375 C 20.617188 -11.757812 20.46875 -11.84375 20.25 -11.84375 C 19.507812 -11.84375 18.234375 -11.175781 16.421875 -9.84375 C 14.617188 -8.507812 12.785156 -6.78125 10.921875 -4.65625 C 9.742188 -2.9375 8.628906 -2.078125 7.578125 -2.078125 Z M 7.578125 -2.078125 "/></g></g></g><g fill="#697e91" fill-opacity="1"><g transform="translate(90.404112, 216.233511)"><g><path d="M 12.234375 0 C 10.148438 0 8.46875 -0.582031 7.1875 -1.75 C 5.90625 -2.925781 5.265625 -4.59375 5.265625 -6.75 C 5.265625 -7.59375 5.320312 -8.523438 5.4375 -9.546875 C 5.507812 -10.421875 5.863281 -11.625 6.5 -13.15625 C 7.132812 -14.695312 8.007812 -16.195312 9.125 -17.65625 C 10.25 -19.125 11.5625 -20.207031 13.0625 -20.90625 C 13.75 -21.226562 14.332031 -21.453125 14.8125 -21.578125 C 15.289062 -21.710938 15.835938 -21.78125 16.453125 -21.78125 C 17.953125 -21.78125 19.164062 -21.503906 20.09375 -20.953125 C 21.03125 -20.410156 21.691406 -19.789062 22.078125 -19.09375 C 22.460938 -18.394531 22.65625 -17.789062 22.65625 -17.28125 L 22.65625 -16.84375 C 22.65625 -16.40625 22.398438 -15.597656 21.890625 -14.421875 C 21.378906 -13.253906 20.566406 -12.15625 19.453125 -11.125 C 18.335938 -10.101562 16.898438 -9.539062 15.140625 -9.4375 C 14.265625 -9.4375 13.414062 -9.515625 12.59375 -9.671875 C 11.769531 -9.835938 11.25 -9.921875 11.03125 -9.921875 C 10.476562 -9.921875 10.128906 -9.71875 9.984375 -9.3125 C 9.835938 -8.914062 9.765625 -8.242188 9.765625 -7.296875 C 9.867188 -6.273438 10.148438 -5.5625 10.609375 -5.15625 C 11.066406 -4.75 11.738281 -4.546875 12.625 -4.546875 C 13.0625 -4.546875 13.570312 -4.675781 14.15625 -4.9375 C 14.738281 -5.226562 15.429688 -5.6875 16.234375 -6.3125 C 16.671875 -6.675781 17.019531 -6.929688 17.28125 -7.078125 C 17.539062 -7.222656 17.851562 -7.296875 18.21875 -7.296875 C 18.539062 -7.296875 18.921875 -7.078125 19.359375 -6.640625 C 19.804688 -6.203125 20.046875 -5.78125 20.078125 -5.375 C 20.003906 -4.9375 19.601562 -4.273438 18.875 -3.390625 C 18.144531 -2.515625 17.191406 -1.726562 16.015625 -1.03125 C 14.847656 -0.34375 13.585938 0 12.234375 0 Z M 14.15625 -13.21875 C 14.851562 -13.21875 15.328125 -13.289062 15.578125 -13.4375 C 15.941406 -13.625 16.5 -14.09375 17.25 -14.84375 C 18 -15.59375 18.394531 -16.113281 18.4375 -16.40625 C 18.4375 -16.769531 18.28125 -17.070312 17.96875 -17.3125 C 17.65625 -17.550781 17.222656 -17.707031 16.671875 -17.78125 L 16.078125 -17.78125 C 15.597656 -17.78125 14.910156 -17.382812 14.015625 -16.59375 C 13.117188 -15.8125 12.34375 -14.90625 11.6875 -13.875 C 11.71875 -13.695312 11.988281 -13.539062 12.5 -13.40625 C 13.019531 -13.28125 13.570312 -13.21875 14.15625 -13.21875 Z M 14.15625 -13.21875 "/></g></g></g><g fill="#697e91" fill-opacity="1"><g transform="translate(108.725838, 216.233511)"><g><path d="M 8.0625 6.640625 C 7.84375 6.785156 7.335938 6.609375 6.546875 6.109375 C 5.765625 5.617188 5.117188 5.082031 4.609375 4.5 C 4.390625 4.28125 4.242188 4.066406 4.171875 3.859375 C 4.097656 3.660156 4.0625 3.398438 4.0625 3.078125 L 4.171875 1.703125 C 4.347656 1.148438 4.4375 0.507812 4.4375 -0.21875 C 4.4375 -0.507812 4.566406 -1.429688 4.828125 -2.984375 C 5.085938 -4.546875 5.289062 -5.671875 5.4375 -6.359375 L 5.59375 -7.015625 C 5.882812 -8.222656 6.101562 -9.34375 6.25 -10.375 C 6.539062 -11.28125 6.785156 -12.179688 6.984375 -13.078125 C 7.191406 -13.972656 7.296875 -14.585938 7.296875 -14.921875 C 7.296875 -15.578125 7.550781 -16.050781 8.0625 -16.34375 C 8.101562 -16.632812 8.378906 -17.238281 8.890625 -18.15625 C 9.765625 -20.644531 10.410156 -22.425781 10.828125 -23.5 C 11.253906 -24.582031 11.703125 -25.523438 12.171875 -26.328125 C 12.835938 -28.160156 13.367188 -29.3125 13.765625 -29.78125 C 14.023438 -30.40625 14.722656 -31.320312 15.859375 -32.53125 C 16.992188 -33.738281 18 -34.707031 18.875 -35.4375 C 20.695312 -36.382812 22.234375 -36.859375 23.484375 -36.859375 C 24.546875 -36.859375 25.769531 -36.203125 27.15625 -34.890625 C 27.664062 -34.335938 27.957031 -33.96875 28.03125 -33.78125 C 28.101562 -33.601562 28.140625 -33.257812 28.140625 -32.75 C 27.992188 -32.050781 27.351562 -30.820312 26.21875 -29.0625 C 25.082031 -27.3125 24.367188 -26.421875 24.078125 -26.390625 C 23.640625 -26.242188 23.347656 -26.171875 23.203125 -26.171875 C 22.878906 -26.171875 22.601562 -26.28125 22.375 -26.5 C 22.15625 -26.71875 22.046875 -27.046875 22.046875 -27.484375 C 22.046875 -28.179688 22.269531 -28.984375 22.71875 -29.890625 C 23.15625 -30.484375 23.375 -31 23.375 -31.4375 C 23.375 -32.050781 22.878906 -32.359375 21.890625 -32.359375 C 21.597656 -32.210938 21.019531 -31.691406 20.15625 -30.796875 C 19.300781 -29.898438 18.875 -29.34375 18.875 -29.125 C 18.832031 -29.050781 18.726562 -28.859375 18.5625 -28.546875 C 18.40625 -28.242188 18.160156 -27.890625 17.828125 -27.484375 C 17.171875 -26.566406 16.84375 -26 16.84375 -25.78125 C 16.84375 -25.3125 16.734375 -25.078125 16.515625 -25.078125 C 16.472656 -25.003906 16.390625 -24.789062 16.265625 -24.4375 C 16.140625 -24.09375 15.96875 -23.71875 15.75 -23.3125 C 15.601562 -22.988281 15.414062 -22.625 15.1875 -22.21875 C 14.96875 -21.8125 14.785156 -21.535156 14.640625 -21.390625 L 14.703125 -21.390625 C 14.585938 -21.140625 14.382812 -20.65625 14.09375 -19.9375 C 13.800781 -19.226562 13.65625 -18.816406 13.65625 -18.703125 C 13.65625 -18.554688 13.875 -18.484375 14.3125 -18.484375 C 15.125 -18.484375 16.257812 -18.6875 17.71875 -19.09375 C 18.195312 -19.238281 18.546875 -19.3125 18.765625 -19.3125 C 19.015625 -19.3125 19.378906 -19.238281 19.859375 -19.09375 C 20.265625 -18.832031 20.59375 -18.265625 20.84375 -17.390625 C 21.101562 -16.515625 21.160156 -15.96875 21.015625 -15.75 C 20.972656 -15.601562 20.578125 -15.398438 19.828125 -15.140625 C 19.078125 -14.878906 18.300781 -14.675781 17.5 -14.53125 L 15.25 -14.046875 C 13.164062 -13.609375 12.125 -13.316406 12.125 -13.171875 C 11.976562 -13.171875 11.847656 -13.097656 11.734375 -12.953125 C 11.628906 -12.804688 11.578125 -12.660156 11.578125 -12.515625 C 11.578125 -11.992188 11.503906 -11.609375 11.359375 -11.359375 C 11.171875 -10.847656 10.863281 -9.617188 10.4375 -7.671875 C 10.019531 -5.734375 9.8125 -4.546875 9.8125 -4.109375 C 9.519531 -3.742188 9.375 -3.085938 9.375 -2.140625 C 9.15625 -1.734375 9.046875 -1.273438 9.046875 -0.765625 C 9.046875 -0.546875 9.03125 -0.363281 9 -0.21875 C 9 -0.03125 8.960938 0.40625 8.890625 1.09375 C 8.816406 1.789062 8.78125 2.429688 8.78125 3.015625 L 8.609375 4.609375 C 8.578125 5.046875 8.523438 5.445312 8.453125 5.8125 C 8.378906 6.175781 8.25 6.453125 8.0625 6.640625 Z M 8.0625 6.640625 "/></g></g></g><g fill="#697e91" fill-opacity="1"><g transform="translate(125.182475, 216.233511)"><g><path d="M 10.859375 -23.640625 C 10.421875 -23.566406 10.148438 -23.53125 10.046875 -23.53125 C 9.492188 -23.53125 9 -23.710938 8.5625 -24.078125 C 8.375 -24.703125 8.59375 -25.453125 9.21875 -26.328125 C 10.601562 -28.597656 11.476562 -30.242188 11.84375 -31.265625 C 11.882812 -31.554688 11.992188 -32.066406 12.171875 -32.796875 C 12.359375 -33.535156 12.453125 -34.210938 12.453125 -34.828125 C 12.410156 -35.160156 12.519531 -35.65625 12.78125 -36.3125 C 13.039062 -36.96875 13.296875 -37.242188 13.546875 -37.140625 C 13.691406 -37.066406 14.066406 -36.890625 14.671875 -36.609375 C 15.273438 -36.335938 15.769531 -36.019531 16.15625 -35.65625 C 16.539062 -35.289062 16.695312 -34.925781 16.625 -34.5625 C 16.550781 -33.613281 16.3125 -32.523438 15.90625 -31.296875 C 15.507812 -30.066406 15.273438 -29.328125 15.203125 -29.078125 C 14.828125 -27.679688 13.816406 -26.050781 12.171875 -24.1875 C 12.171875 -24.113281 12.113281 -24.050781 12 -24 C 11.894531 -23.945312 11.742188 -23.890625 11.546875 -23.828125 C 11.347656 -23.773438 11.117188 -23.710938 10.859375 -23.640625 Z M 10.859375 -23.640625 "/></g></g></g><g fill="#697e91" fill-opacity="1"><g transform="translate(131.600562, 216.233511)"><g><path d="M 10.96875 0.828125 C 10.09375 0.828125 9.1875 0.640625 8.25 0.265625 C 7.320312 -0.0976562 6.535156 -0.539062 5.890625 -1.0625 C 5.253906 -1.59375 4.9375 -2.082031 4.9375 -2.53125 C 4.9375 -2.96875 5.140625 -3.238281 5.546875 -3.34375 L 5.8125 -3.5625 C 5.882812 -3.601562 6.03125 -3.625 6.25 -3.625 C 6.394531 -3.65625 6.578125 -3.644531 6.796875 -3.59375 C 7.015625 -3.539062 7.195312 -3.515625 7.34375 -3.515625 C 7.601562 -3.441406 7.988281 -3.367188 8.5 -3.296875 L 9.921875 -3.125 C 10.660156 -3.125 11.347656 -3.195312 11.984375 -3.34375 C 12.628906 -3.488281 12.953125 -3.65625 12.953125 -3.84375 C 12.953125 -3.945312 12.800781 -4.125 12.5 -4.375 C 12.207031 -4.632812 11.898438 -4.765625 11.578125 -4.765625 C 11.578125 -4.921875 11.007812 -5.414062 9.875 -6.25 C 9.25 -6.726562 8.648438 -7.203125 8.078125 -7.671875 C 7.515625 -8.148438 7.234375 -8.5 7.234375 -8.71875 L 7.296875 -8.828125 L 7.296875 -9.109375 C 7.035156 -9.109375 6.796875 -9.453125 6.578125 -10.140625 C 6.359375 -10.835938 6.25 -11.515625 6.25 -12.171875 C 6.25 -13.421875 6.796875 -14.796875 7.890625 -16.296875 C 8.992188 -17.796875 10.359375 -19.144531 11.984375 -20.34375 C 13.609375 -21.550781 15.15625 -22.378906 16.625 -22.828125 C 17.164062 -23.078125 17.96875 -23.203125 19.03125 -23.203125 C 19.726562 -23.203125 20.207031 -23.128906 20.46875 -22.984375 L 20.90625 -23.09375 C 21.34375 -23.09375 21.90625 -22.726562 22.59375 -22 C 23.289062 -21.269531 23.734375 -20.6875 23.921875 -20.25 C 23.921875 -19.039062 23.882812 -18.066406 23.8125 -17.328125 C 23.738281 -16.597656 23.554688 -16.234375 23.265625 -16.234375 C 23.222656 -16.234375 23.164062 -16.210938 23.09375 -16.171875 C 23.019531 -16.140625 22.984375 -16.050781 22.984375 -15.90625 C 22.984375 -15.394531 22.535156 -14.828125 21.640625 -14.203125 C 20.742188 -13.585938 19.929688 -13.28125 19.203125 -13.28125 L 18.984375 -13.328125 C 18.765625 -13.367188 18.441406 -13.585938 18.015625 -13.984375 C 17.597656 -14.390625 17.390625 -14.796875 17.390625 -15.203125 C 17.390625 -15.304688 17.609375 -15.59375 18.046875 -16.0625 C 18.484375 -16.539062 18.859375 -17.007812 19.171875 -17.46875 C 19.484375 -17.925781 19.640625 -18.410156 19.640625 -18.921875 C 19.640625 -19.109375 19.570312 -19.226562 19.4375 -19.28125 C 19.3125 -19.332031 19.066406 -19.359375 18.703125 -19.359375 C 16.691406 -18.453125 15.25 -17.59375 14.375 -16.78125 C 14.257812 -16.5625 14.15625 -16.394531 14.0625 -16.28125 C 13.976562 -16.175781 13.863281 -16.125 13.71875 -16.125 C 13.71875 -16.125 13.71875 -16.132812 13.71875 -16.15625 C 13.71875 -16.175781 13.695312 -16.1875 13.65625 -16.1875 C 13.582031 -16.1875 13.34375 -15.972656 12.9375 -15.546875 C 12.539062 -15.128906 12.164062 -14.644531 11.8125 -14.09375 C 11.46875 -13.550781 11.257812 -13.039062 11.1875 -12.5625 L 11.078125 -12.390625 L 11.078125 -12.125 C 11.046875 -12.050781 11.03125 -11.90625 11.03125 -11.6875 C 11.03125 -11.351562 11.175781 -11.015625 11.46875 -10.671875 C 11.757812 -10.328125 12.34375 -9.84375 13.21875 -9.21875 C 14.863281 -7.96875 15.988281 -7.039062 16.59375 -6.4375 C 17.195312 -5.84375 17.570312 -5.304688 17.71875 -4.828125 C 18.050781 -4.171875 18.21875 -3.585938 18.21875 -3.078125 C 18.21875 -1.828125 17.566406 -0.863281 16.265625 -0.1875 C 14.960938 0.488281 13.195312 0.828125 10.96875 0.828125 Z M 10.96875 0.828125 "/></g></g></g><g fill="#697e91" fill-opacity="1"><g transform="translate(150.79997, 216.233511)"><g/></g></g><g fill="#697e91" fill-opacity="1"><g transform="translate(164.07499, 216.233511)"><g><path d="M 27.59375 3.40625 C 27.113281 3.4375 26.679688 3.332031 26.296875 3.09375 C 25.921875 2.863281 25.660156 2.5625 25.515625 2.1875 C 25.328125 2.007812 25.078125 1.609375 24.765625 0.984375 C 24.453125 0.367188 24.257812 -0.140625 24.1875 -0.546875 C 24.039062 -2.304688 23.96875 -3.585938 23.96875 -4.390625 C 23.96875 -5.410156 24.023438 -6.800781 24.140625 -8.5625 C 24.285156 -10.382812 24.550781 -11.972656 24.9375 -13.328125 C 25.320312 -14.679688 25.785156 -16.128906 26.328125 -17.671875 C 26.472656 -17.992188 26.582031 -18.265625 26.65625 -18.484375 C 26.726562 -18.703125 26.726562 -18.8125 26.65625 -18.8125 C 26.40625 -18.78125 25.953125 -18.015625 25.296875 -16.515625 C 25.179688 -16.296875 25.039062 -16.003906 24.875 -15.640625 C 24.707031 -15.273438 24.5 -14.867188 24.25 -14.421875 C 23.226562 -12.160156 21.34375 -8.722656 18.59375 -4.109375 C 18.269531 -3.710938 17.8125 -3.070312 17.21875 -2.1875 C 16.09375 -0.46875 15.160156 0.71875 14.421875 1.375 C 13.398438 2.363281 12.320312 2.859375 11.1875 2.859375 C 10.71875 2.859375 10.1875 2.726562 9.59375 2.46875 C 9.007812 2.394531 8.441406 1.992188 7.890625 1.265625 C 7.347656 0.535156 7.148438 -0.160156 7.296875 -0.828125 C 7.179688 -1.734375 7.28125 -3.601562 7.59375 -6.4375 C 7.90625 -9.28125 8.226562 -11.648438 8.5625 -13.546875 C 8.8125 -15.304688 9.378906 -18.195312 10.265625 -22.21875 L 11.46875 -28.140625 C 11.6875 -28.691406 12.035156 -29.789062 12.515625 -31.4375 L 13 -33.25 C 13.039062 -33.832031 13.234375 -34.257812 13.578125 -34.53125 C 13.921875 -34.8125 14.347656 -34.953125 14.859375 -34.953125 C 15.304688 -34.953125 15.726562 -34.867188 16.125 -34.703125 C 16.53125 -34.535156 16.820312 -34.320312 17 -34.0625 C 17.769531 -33.226562 18.15625 -32.316406 18.15625 -31.328125 C 18.15625 -30.742188 18.03125 -30.117188 17.78125 -29.453125 C 16.132812 -25.429688 14.816406 -20.128906 13.828125 -13.546875 C 13.460938 -11.285156 13.140625 -9.144531 12.859375 -7.125 C 12.585938 -5.113281 12.523438 -4.09375 12.671875 -4.0625 C 13.222656 -3.914062 13.914062 -4.71875 14.75 -6.46875 C 17.164062 -10.457031 19.929688 -15.488281 23.046875 -21.5625 C 23.117188 -21.664062 23.921875 -23.164062 25.453125 -26.0625 L 26.765625 -28.53125 L 27.65625 -30.125 C 28.601562 -31.84375 29.347656 -33.140625 29.890625 -34.015625 C 30.441406 -34.890625 30.847656 -35.382812 31.109375 -35.5 C 32.023438 -35.5 32.726562 -35.269531 33.21875 -34.8125 C 33.707031 -34.351562 34.132812 -33.703125 34.5 -32.859375 C 34.570312 -32.566406 34.609375 -32.21875 34.609375 -31.8125 C 34.609375 -31.445312 34.554688 -31.101562 34.453125 -30.78125 C 34.378906 -30.5625 34.203125 -30.007812 33.921875 -29.125 C 33.648438 -28.25 33.425781 -27.375 33.25 -26.5 C 32.550781 -24.664062 32.035156 -22.890625 31.703125 -21.171875 C 31.554688 -20.484375 31.410156 -19.804688 31.265625 -19.140625 C 31.117188 -18.484375 30.992188 -17.863281 30.890625 -17.28125 C 30.265625 -14.539062 29.796875 -12.253906 29.484375 -10.421875 C 29.171875 -8.597656 29 -6.972656 28.96875 -5.546875 C 28.925781 -4.585938 28.929688 -3.941406 28.984375 -3.609375 C 29.046875 -3.285156 29.148438 -2.941406 29.296875 -2.578125 C 29.328125 -2.390625 29.414062 -2.296875 29.5625 -2.296875 C 29.78125 -2.296875 30.113281 -2.570312 30.5625 -3.125 C 31.070312 -3.820312 31.476562 -4.5 31.78125 -5.15625 C 32.09375 -5.8125 32.304688 -6.25 32.421875 -6.46875 C 32.859375 -7.53125 33.316406 -8.484375 33.796875 -9.328125 C 35.078125 -11.742188 36.457031 -14.519531 37.9375 -17.65625 C 39.414062 -20.800781 40.6875 -23.617188 41.75 -26.109375 C 42.8125 -29.148438 43.644531 -31.316406 44.25 -32.609375 C 44.851562 -33.910156 45.425781 -34.726562 45.96875 -35.0625 C 46.1875 -35.207031 46.535156 -35.28125 47.015625 -35.28125 C 47.710938 -35.28125 48.222656 -35.128906 48.546875 -34.828125 C 48.617188 -34.796875 48.859375 -34.597656 49.265625 -34.234375 C 49.671875 -33.867188 49.851562 -33.445312 49.8125 -32.96875 C 49.476562 -31.832031 48.582031 -29.453125 47.125 -25.828125 C 45.664062 -22.210938 44.53125 -19.53125 43.71875 -17.78125 C 43.570312 -17.519531 43.28125 -17.023438 42.84375 -16.296875 C 42.769531 -16.179688 42.613281 -15.910156 42.375 -15.484375 C 42.132812 -15.066406 42.015625 -14.75 42.015625 -14.53125 C 42.015625 -14.164062 41.054688 -12.253906 39.140625 -8.796875 C 37.222656 -5.347656 35.804688 -3.035156 34.890625 -1.859375 C 34.046875 -0.804688 33.113281 0.109375 32.09375 0.890625 C 31.070312 1.679688 30.140625 2.296875 29.296875 2.734375 C 28.453125 3.179688 27.882812 3.40625 27.59375 3.40625 Z M 27.59375 3.40625 "/></g></g></g><g fill="#697e91" fill-opacity="1"><g transform="translate(203.570928, 216.233511)"><g><path d="M 7.578125 -2.078125 C 6.910156 -2.191406 6.300781 -2.554688 5.75 -3.171875 C 5.207031 -3.796875 4.9375 -4.515625 4.9375 -5.328125 C 4.9375 -6.203125 5.484375 -8.445312 6.578125 -12.0625 C 6.765625 -13.019531 7.171875 -14.25 7.796875 -15.75 C 8.015625 -16.363281 8.140625 -16.726562 8.171875 -16.84375 C 8.828125 -19.039062 9.722656 -21.726562 10.859375 -24.90625 L 11.359375 -26.21875 C 12.640625 -29.695312 13.40625 -31.820312 13.65625 -32.59375 L 14.53125 -35 C 14.53125 -35.289062 14.738281 -35.570312 15.15625 -35.84375 C 15.582031 -36.125 15.941406 -36.265625 16.234375 -36.265625 C 16.816406 -36.265625 17.382812 -35.878906 17.9375 -35.109375 C 18.488281 -34.335938 18.78125 -33.535156 18.8125 -32.703125 C 18.8125 -32.253906 18.722656 -31.847656 18.546875 -31.484375 C 17.703125 -29.660156 16.660156 -26.828125 15.421875 -22.984375 C 14.867188 -21.378906 14.316406 -19.851562 13.765625 -18.40625 C 13.222656 -16.957031 12.785156 -15.925781 12.453125 -15.3125 L 11.84375 -14.09375 L 11.078125 -11.1875 C 11.078125 -11.082031 11.054688 -10.992188 11.015625 -10.921875 C 10.984375 -10.847656 10.96875 -10.789062 10.96875 -10.75 C 10.96875 -10.644531 10.988281 -10.59375 11.03125 -10.59375 L 11.953125 -11.515625 C 13.015625 -12.578125 14.28125 -13.65625 15.75 -14.75 C 16.957031 -15.59375 17.578125 -16.066406 17.609375 -16.171875 C 17.648438 -16.285156 17.796875 -16.453125 18.046875 -16.671875 L 18.59375 -17.109375 C 19.769531 -17.953125 21.03125 -18.375 22.375 -18.375 C 22.78125 -18.375 23.253906 -18.171875 23.796875 -17.765625 C 24.347656 -17.367188 24.816406 -16.8125 25.203125 -16.09375 C 25.585938 -15.382812 25.78125 -14.628906 25.78125 -13.828125 L 25.78125 -13 C 25.78125 -12.082031 25.601562 -10.882812 25.25 -9.40625 C 24.90625 -7.925781 24.71875 -7.078125 24.6875 -6.859375 C 24.875 -6.859375 25.148438 -6.894531 25.515625 -6.96875 C 26.054688 -6.96875 26.445312 -6.910156 26.6875 -6.796875 C 26.925781 -6.691406 27.132812 -6.546875 27.3125 -6.359375 C 27.5 -6.179688 27.664062 -6.070312 27.8125 -6.03125 C 27.882812 -5.957031 27.921875 -5.847656 27.921875 -5.703125 C 27.921875 -4.859375 27.460938 -4.125 26.546875 -3.5 C 25.640625 -2.882812 24.765625 -2.539062 23.921875 -2.46875 C 22.890625 -2.46875 22.0625 -2.847656 21.4375 -3.609375 C 20.820312 -4.378906 20.515625 -5.316406 20.515625 -6.421875 C 20.515625 -6.859375 20.53125 -7.296875 20.5625 -7.734375 C 20.601562 -8.171875 20.644531 -8.554688 20.6875 -8.890625 C 20.789062 -9.617188 20.84375 -10.203125 20.84375 -10.640625 C 20.84375 -11.117188 20.796875 -11.4375 20.703125 -11.59375 C 20.617188 -11.757812 20.46875 -11.84375 20.25 -11.84375 C 19.507812 -11.84375 18.234375 -11.175781 16.421875 -9.84375 C 14.617188 -8.507812 12.785156 -6.78125 10.921875 -4.65625 C 9.742188 -2.9375 8.628906 -2.078125 7.578125 -2.078125 Z M 7.578125 -2.078125 "/></g></g></g><g fill="#697e91" fill-opacity="1"><g transform="translate(229.517567, 216.233511)"><g><path d="M 11.578125 -22.9375 C 11.210938 -23.1875 10.921875 -23.507812 10.703125 -23.90625 C 10.484375 -24.3125 10.351562 -24.695312 10.3125 -25.0625 C 10.28125 -25.4375 10.316406 -25.660156 10.421875 -25.734375 C 10.640625 -25.984375 10.859375 -26.328125 11.078125 -26.765625 C 11.296875 -27.210938 11.460938 -27.523438 11.578125 -27.703125 C 11.867188 -28.359375 12.101562 -28.832031 12.28125 -29.125 C 12.539062 -29.632812 12.78125 -29.910156 13 -29.953125 C 13.289062 -30.097656 13.53125 -30.171875 13.71875 -30.171875 C 14.1875 -30.171875 14.703125 -30.003906 15.265625 -29.671875 C 15.835938 -29.347656 16.269531 -28.96875 16.5625 -28.53125 C 16.820312 -27.945312 16.953125 -27.429688 16.953125 -26.984375 C 16.953125 -26.109375 16.53125 -25.140625 15.6875 -24.078125 C 15.320312 -23.609375 14.882812 -23.242188 14.375 -22.984375 C 13.863281 -22.734375 13.351562 -22.609375 12.84375 -22.609375 C 12.320312 -22.609375 11.898438 -22.71875 11.578125 -22.9375 Z M 5.65625 -0.9375 C 5.132812 -1.445312 4.875 -2.359375 4.875 -3.671875 C 4.875 -4.367188 4.96875 -4.898438 5.15625 -5.265625 C 5.15625 -5.453125 5.191406 -5.671875 5.265625 -5.921875 C 5.335938 -6.179688 5.375 -6.347656 5.375 -6.421875 C 5.34375 -6.640625 5.488281 -7.242188 5.8125 -8.234375 C 6.25 -9.210938 6.804688 -10.726562 7.484375 -12.78125 C 8.160156 -14.832031 8.628906 -16.296875 8.890625 -17.171875 C 8.890625 -17.347656 8.960938 -17.5 9.109375 -17.625 C 9.253906 -17.757812 9.472656 -17.847656 9.765625 -17.890625 C 10.171875 -18.035156 10.679688 -17.859375 11.296875 -17.359375 C 11.921875 -16.867188 12.4375 -16.3125 12.84375 -15.6875 C 13.0625 -15.46875 13.171875 -15.175781 13.171875 -14.8125 C 13.171875 -14.257812 12.929688 -13.492188 12.453125 -12.515625 C 12.265625 -12.109375 12.085938 -11.613281 11.921875 -11.03125 C 11.765625 -10.445312 11.628906 -9.894531 11.515625 -9.375 C 11.078125 -8.394531 10.734375 -7.484375 10.484375 -6.640625 C 10.367188 -6.160156 10.296875 -5.796875 10.265625 -5.546875 C 10.003906 -4.191406 9.765625 -3.3125 9.546875 -2.90625 C 9.328125 -1.988281 9.015625 -1.300781 8.609375 -0.84375 C 8.210938 -0.394531 7.753906 -0.171875 7.234375 -0.171875 C 6.617188 -0.171875 6.09375 -0.425781 5.65625 -0.9375 Z M 5.65625 -0.9375 "/></g></g></g><g fill="#697e91" fill-opacity="1"><g transform="translate(240.269244, 216.233511)"><g><path d="M 10.96875 0.828125 C 10.09375 0.828125 9.1875 0.640625 8.25 0.265625 C 7.320312 -0.0976562 6.535156 -0.539062 5.890625 -1.0625 C 5.253906 -1.59375 4.9375 -2.082031 4.9375 -2.53125 C 4.9375 -2.96875 5.140625 -3.238281 5.546875 -3.34375 L 5.8125 -3.5625 C 5.882812 -3.601562 6.03125 -3.625 6.25 -3.625 C 6.394531 -3.65625 6.578125 -3.644531 6.796875 -3.59375 C 7.015625 -3.539062 7.195312 -3.515625 7.34375 -3.515625 C 7.601562 -3.441406 7.988281 -3.367188 8.5 -3.296875 L 9.921875 -3.125 C 10.660156 -3.125 11.347656 -3.195312 11.984375 -3.34375 C 12.628906 -3.488281 12.953125 -3.65625 12.953125 -3.84375 C 12.953125 -3.945312 12.800781 -4.125 12.5 -4.375 C 12.207031 -4.632812 11.898438 -4.765625 11.578125 -4.765625 C 11.578125 -4.921875 11.007812 -5.414062 9.875 -6.25 C 9.25 -6.726562 8.648438 -7.203125 8.078125 -7.671875 C 7.515625 -8.148438 7.234375 -8.5 7.234375 -8.71875 L 7.296875 -8.828125 L 7.296875 -9.109375 C 7.035156 -9.109375 6.796875 -9.453125 6.578125 -10.140625 C 6.359375 -10.835938 6.25 -11.515625 6.25 -12.171875 C 6.25 -13.421875 6.796875 -14.796875 7.890625 -16.296875 C 8.992188 -17.796875 10.359375 -19.144531 11.984375 -20.34375 C 13.609375 -21.550781 15.15625 -22.378906 16.625 -22.828125 C 17.164062 -23.078125 17.96875 -23.203125 19.03125 -23.203125 C 19.726562 -23.203125 20.207031 -23.128906 20.46875 -22.984375 L 20.90625 -23.09375 C 21.34375 -23.09375 21.90625 -22.726562 22.59375 -22 C 23.289062 -21.269531 23.734375 -20.6875 23.921875 -20.25 C 23.921875 -19.039062 23.882812 -18.066406 23.8125 -17.328125 C 23.738281 -16.597656 23.554688 -16.234375 23.265625 -16.234375 C 23.222656 -16.234375 23.164062 -16.210938 23.09375 -16.171875 C 23.019531 -16.140625 22.984375 -16.050781 22.984375 -15.90625 C 22.984375 -15.394531 22.535156 -14.828125 21.640625 -14.203125 C 20.742188 -13.585938 19.929688 -13.28125 19.203125 -13.28125 L 18.984375 -13.328125 C 18.765625 -13.367188 18.441406 -13.585938 18.015625 -13.984375 C 17.597656 -14.390625 17.390625 -14.796875 17.390625 -15.203125 C 17.390625 -15.304688 17.609375 -15.59375 18.046875 -16.0625 C 18.484375 -16.539062 18.859375 -17.007812 19.171875 -17.46875 C 19.484375 -17.925781 19.640625 -18.410156 19.640625 -18.921875 C 19.640625 -19.109375 19.570312 -19.226562 19.4375 -19.28125 C 19.3125 -19.332031 19.066406 -19.359375 18.703125 -19.359375 C 16.691406 -18.453125 15.25 -17.59375 14.375 -16.78125 C 14.257812 -16.5625 14.15625 -16.394531 14.0625 -16.28125 C 13.976562 -16.175781 13.863281 -16.125 13.71875 -16.125 C 13.71875 -16.125 13.71875 -16.132812 13.71875 -16.15625 C 13.71875 -16.175781 13.695312 -16.1875 13.65625 -16.1875 C 13.582031 -16.1875 13.34375 -15.972656 12.9375 -15.546875 C 12.539062 -15.128906 12.164062 -14.644531 11.8125 -14.09375 C 11.46875 -13.550781 11.257812 -13.039062 11.1875 -12.5625 L 11.078125 -12.390625 L 11.078125 -12.125 C 11.046875 -12.050781 11.03125 -11.90625 11.03125 -11.6875 C 11.03125 -11.351562 11.175781 -11.015625 11.46875 -10.671875 C 11.757812 -10.328125 12.34375 -9.84375 13.21875 -9.21875 C 14.863281 -7.96875 15.988281 -7.039062 16.59375 -6.4375 C 17.195312 -5.84375 17.570312 -5.304688 17.71875 -4.828125 C 18.050781 -4.171875 18.21875 -3.585938 18.21875 -3.078125 C 18.21875 -1.828125 17.566406 -0.863281 16.265625 -0.1875 C 14.960938 0.488281 13.195312 0.828125 10.96875 0.828125 Z M 10.96875 0.828125 "/></g></g></g><g fill="#697e91" fill-opacity="1"><g transform="translate(259.468653, 216.233511)"><g><path d="M 2.859375 12.84375 C 2.484375 12.84375 2.207031 12.675781 2.03125 12.34375 C 1.988281 12.300781 1.820312 12.078125 1.53125 11.671875 C 1.238281 11.273438 1.09375 10.691406 1.09375 9.921875 C 1.09375 9.773438 1.128906 9.484375 1.203125 9.046875 C 1.609375 7.515625 1.8125 6.457031 1.8125 5.875 C 1.8125 5.6875 1.847656 5.414062 1.921875 5.0625 C 1.992188 4.71875 2.046875 4.398438 2.078125 4.109375 C 2.222656 3.859375 2.359375 3.46875 2.484375 2.9375 C 2.617188 2.40625 2.6875 1.9375 2.6875 1.53125 C 2.6875 1.351562 2.75 1.144531 2.875 0.90625 C 3.007812 0.664062 3.164062 0.472656 3.34375 0.328125 C 3.34375 0.109375 3.394531 -0.226562 3.5 -0.6875 C 3.613281 -1.144531 3.691406 -1.460938 3.734375 -1.640625 C 3.910156 -2.628906 4.617188 -4.96875 5.859375 -8.65625 C 7.109375 -12.351562 8.171875 -15.335938 9.046875 -17.609375 C 9.484375 -18.628906 9.847656 -19.578125 10.140625 -20.453125 C 10.441406 -21.335938 10.59375 -21.960938 10.59375 -22.328125 C 10.59375 -22.472656 10.632812 -22.609375 10.71875 -22.734375 C 10.8125 -22.867188 10.96875 -23.046875 11.1875 -23.265625 C 11.476562 -23.554688 11.863281 -23.703125 12.34375 -23.703125 C 12.96875 -23.703125 13.570312 -23.5 14.15625 -23.09375 C 14.40625 -22.695312 14.582031 -22.347656 14.6875 -22.046875 C 14.800781 -21.753906 14.859375 -21.425781 14.859375 -21.0625 C 14.859375 -20.957031 14.820312 -20.613281 14.75 -20.03125 C 14.75 -19.257812 14.53125 -18.5625 14.09375 -17.9375 C 13.65625 -17.3125 13.457031 -17.019531 13.5 -17.0625 C 15.289062 -18.15625 16.953125 -18.703125 18.484375 -18.703125 C 20.128906 -18.703125 21.445312 -18.125 22.4375 -16.96875 C 23.425781 -15.820312 23.921875 -14.460938 23.921875 -12.890625 C 23.921875 -12.265625 23.625 -11.335938 23.03125 -10.109375 C 22.445312 -8.890625 21.972656 -8.117188 21.609375 -7.796875 C 21.390625 -7.796875 21.097656 -7.410156 20.734375 -6.640625 C 20.296875 -6.054688 19.460938 -5.441406 18.234375 -4.796875 C 17.015625 -4.160156 16.1875 -3.914062 15.75 -4.0625 C 15.707031 -4.0625 15.648438 -4.015625 15.578125 -3.921875 C 15.503906 -3.828125 15.46875 -3.707031 15.46875 -3.5625 C 15.46875 -3.414062 14.914062 -3.160156 13.8125 -2.796875 C 12.71875 -2.429688 11.769531 -2.25 10.96875 -2.25 C 10.53125 -2.25 10.203125 -2.273438 9.984375 -2.328125 C 9.765625 -2.378906 9.546875 -2.5 9.328125 -2.6875 C 9.066406 -2.425781 8.9375 -2.1875 8.9375 -1.96875 C 8.9375 -1.601562 8.753906 -1.023438 8.390625 -0.234375 C 8.023438 0.546875 7.734375 0.9375 7.515625 0.9375 C 7.472656 0.96875 7.425781 1.035156 7.375 1.140625 C 7.320312 1.253906 7.367188 1.382812 7.515625 1.53125 C 7.515625 1.644531 7.492188 1.898438 7.453125 2.296875 C 7.421875 2.703125 7.332031 3.015625 7.1875 3.234375 C 7.1875 3.566406 7.128906 4.015625 7.015625 4.578125 C 6.910156 5.148438 6.785156 5.582031 6.640625 5.875 C 6.640625 6.3125 6.570312 6.738281 6.4375 7.15625 C 6.3125 7.582031 6.175781 7.796875 6.03125 7.796875 C 5.8125 7.867188 5.703125 8.394531 5.703125 9.375 C 5.671875 10.257812 5.390625 11.046875 4.859375 11.734375 C 4.328125 12.429688 3.820312 12.78125 3.34375 12.78125 Z M 10.375 -6.421875 C 10.882812 -6.421875 11.84375 -6.703125 13.25 -7.265625 C 14.65625 -7.835938 15.6875 -8.394531 16.34375 -8.9375 C 17.1875 -9.632812 17.828125 -10.273438 18.265625 -10.859375 C 18.703125 -11.441406 18.921875 -12.03125 18.921875 -12.625 C 18.921875 -13.132812 18.757812 -13.625 18.4375 -14.09375 C 18.175781 -14.5 17.789062 -14.703125 17.28125 -14.703125 C 16.070312 -14.703125 14.5 -13.769531 12.5625 -11.90625 C 11.90625 -11.207031 11.320312 -10.335938 10.8125 -9.296875 C 10.300781 -8.253906 10.046875 -7.457031 10.046875 -6.90625 C 10.046875 -6.582031 10.15625 -6.421875 10.375 -6.421875 Z M 10.375 -6.421875 "/></g></g></g><g fill="#697e91" fill-opacity="1"><g transform="translate(280.204019, 216.233511)"><g><path d="M 12.234375 0 C 10.148438 0 8.46875 -0.582031 7.1875 -1.75 C 5.90625 -2.925781 5.265625 -4.59375 5.265625 -6.75 C 5.265625 -7.59375 5.320312 -8.523438 5.4375 -9.546875 C 5.507812 -10.421875 5.863281 -11.625 6.5 -13.15625 C 7.132812 -14.695312 8.007812 -16.195312 9.125 -17.65625 C 10.25 -19.125 11.5625 -20.207031 13.0625 -20.90625 C 13.75 -21.226562 14.332031 -21.453125 14.8125 -21.578125 C 15.289062 -21.710938 15.835938 -21.78125 16.453125 -21.78125 C 17.953125 -21.78125 19.164062 -21.503906 20.09375 -20.953125 C 21.03125 -20.410156 21.691406 -19.789062 22.078125 -19.09375 C 22.460938 -18.394531 22.65625 -17.789062 22.65625 -17.28125 L 22.65625 -16.84375 C 22.65625 -16.40625 22.398438 -15.597656 21.890625 -14.421875 C 21.378906 -13.253906 20.566406 -12.15625 19.453125 -11.125 C 18.335938 -10.101562 16.898438 -9.539062 15.140625 -9.4375 C 14.265625 -9.4375 13.414062 -9.515625 12.59375 -9.671875 C 11.769531 -9.835938 11.25 -9.921875 11.03125 -9.921875 C 10.476562 -9.921875 10.128906 -9.71875 9.984375 -9.3125 C 9.835938 -8.914062 9.765625 -8.242188 9.765625 -7.296875 C 9.867188 -6.273438 10.148438 -5.5625 10.609375 -5.15625 C 11.066406 -4.75 11.738281 -4.546875 12.625 -4.546875 C 13.0625 -4.546875 13.570312 -4.675781 14.15625 -4.9375 C 14.738281 -5.226562 15.429688 -5.6875 16.234375 -6.3125 C 16.671875 -6.675781 17.019531 -6.929688 17.28125 -7.078125 C 17.539062 -7.222656 17.851562 -7.296875 18.21875 -7.296875 C 18.539062 -7.296875 18.921875 -7.078125 19.359375 -6.640625 C 19.804688 -6.203125 20.046875 -5.78125 20.078125 -5.375 C 20.003906 -4.9375 19.601562 -4.273438 18.875 -3.390625 C 18.144531 -2.515625 17.191406 -1.726562 16.015625 -1.03125 C 14.847656 -0.34375 13.585938 0 12.234375 0 Z M 14.15625 -13.21875 C 14.851562 -13.21875 15.328125 -13.289062 15.578125 -13.4375 C 15.941406 -13.625 16.5 -14.09375 17.25 -14.84375 C 18 -15.59375 18.394531 -16.113281 18.4375 -16.40625 C 18.4375 -16.769531 18.28125 -17.070312 17.96875 -17.3125 C 17.65625 -17.550781 17.222656 -17.707031 16.671875 -17.78125 L 16.078125 -17.78125 C 15.597656 -17.78125 14.910156 -17.382812 14.015625 -16.59375 C 13.117188 -15.8125 12.34375 -14.90625 11.6875 -13.875 C 11.71875 -13.695312 11.988281 -13.539062 12.5 -13.40625 C 13.019531 -13.28125 13.570312 -13.21875 14.15625 -13.21875 Z M 14.15625 -13.21875 "/></g></g></g><g fill="#697e91" fill-opacity="1"><g transform="translate(298.525757, 216.233511)"><g><path d="M 6.53125 -1.484375 C 6.019531 -1.878906 5.613281 -2.257812 5.3125 -2.625 C 5.019531 -3 4.929688 -3.515625 5.046875 -4.171875 C 5.160156 -5.410156 5.4375 -6.851562 5.875 -8.5 L 6.140625 -9.59375 C 6.253906 -10.582031 6.832031 -12.53125 7.875 -15.4375 C 8.914062 -18.34375 9.785156 -20.3125 10.484375 -21.34375 C 10.847656 -21.707031 11.46875 -21.890625 12.34375 -21.890625 C 13.070312 -21.890625 13.582031 -21.742188 13.875 -21.453125 C 14.164062 -21.234375 14.3125 -20.867188 14.3125 -20.359375 C 14.3125 -19.515625 13.785156 -18.03125 12.734375 -15.90625 L 12.171875 -14.75 C 11.921875 -14.28125 11.710938 -13.84375 11.546875 -13.4375 C 11.378906 -13.039062 11.390625 -12.859375 11.578125 -12.890625 C 11.972656 -13.585938 12.945312 -14.539062 14.5 -15.75 C 16.0625 -16.957031 17.132812 -17.707031 17.71875 -18 C 17.976562 -18.144531 18.304688 -18.289062 18.703125 -18.4375 C 19.109375 -18.582031 19.382812 -18.691406 19.53125 -18.765625 C 20.1875 -19.085938 20.9375 -19.25 21.78125 -19.25 C 22.363281 -19.25 22.863281 -19.164062 23.28125 -19 C 23.707031 -18.84375 23.992188 -18.597656 24.140625 -18.265625 C 24.171875 -18.015625 24.269531 -17.8125 24.4375 -17.65625 C 24.601562 -17.507812 24.722656 -17.421875 24.796875 -17.390625 C 24.910156 -17.390625 24.984375 -17.34375 25.015625 -17.25 C 25.054688 -17.15625 25.078125 -17.09375 25.078125 -17.0625 C 25.078125 -16.769531 24.816406 -16.394531 24.296875 -15.9375 C 23.785156 -15.476562 23.257812 -15.234375 22.71875 -15.203125 C 22.3125 -15.160156 21.890625 -15.066406 21.453125 -14.921875 C 21.015625 -14.773438 20.578125 -14.59375 20.140625 -14.375 L 18.703125 -13.546875 C 17.460938 -12.929688 16.410156 -12.320312 15.546875 -11.71875 C 14.691406 -11.113281 13.828125 -10.332031 12.953125 -9.375 C 12.765625 -9.195312 12.492188 -8.941406 12.140625 -8.609375 C 11.796875 -8.285156 11.5 -7.898438 11.25 -7.453125 C 10.988281 -7.203125 10.722656 -6.535156 10.453125 -5.453125 C 10.179688 -4.378906 10.046875 -3.710938 10.046875 -3.453125 C 10.003906 -3.347656 9.925781 -3.128906 9.8125 -2.796875 C 9.707031 -2.460938 9.546875 -2.171875 9.328125 -1.921875 C 8.992188 -1.515625 8.71875 -1.21875 8.5 -1.03125 C 8.28125 -0.851562 8.046875 -0.765625 7.796875 -0.765625 C 7.421875 -0.765625 7 -1.003906 6.53125 -1.484375 Z M 6.53125 -1.484375 "/></g></g></g><g fill="#697e91" fill-opacity="1"><g transform="translate(318.273726, 216.233511)"><g><path d="M 10.96875 0.828125 C 10.09375 0.828125 9.1875 0.640625 8.25 0.265625 C 7.320312 -0.0976562 6.535156 -0.539062 5.890625 -1.0625 C 5.253906 -1.59375 4.9375 -2.082031 4.9375 -2.53125 C 4.9375 -2.96875 5.140625 -3.238281 5.546875 -3.34375 L 5.8125 -3.5625 C 5.882812 -3.601562 6.03125 -3.625 6.25 -3.625 C 6.394531 -3.65625 6.578125 -3.644531 6.796875 -3.59375 C 7.015625 -3.539062 7.195312 -3.515625 7.34375 -3.515625 C 7.601562 -3.441406 7.988281 -3.367188 8.5 -3.296875 L 9.921875 -3.125 C 10.660156 -3.125 11.347656 -3.195312 11.984375 -3.34375 C 12.628906 -3.488281 12.953125 -3.65625 12.953125 -3.84375 C 12.953125 -3.945312 12.800781 -4.125 12.5 -4.375 C 12.207031 -4.632812 11.898438 -4.765625 11.578125 -4.765625 C 11.578125 -4.921875 11.007812 -5.414062 9.875 -6.25 C 9.25 -6.726562 8.648438 -7.203125 8.078125 -7.671875 C 7.515625 -8.148438 7.234375 -8.5 7.234375 -8.71875 L 7.296875 -8.828125 L 7.296875 -9.109375 C 7.035156 -9.109375 6.796875 -9.453125 6.578125 -10.140625 C 6.359375 -10.835938 6.25 -11.515625 6.25 -12.171875 C 6.25 -13.421875 6.796875 -14.796875 7.890625 -16.296875 C 8.992188 -17.796875 10.359375 -19.144531 11.984375 -20.34375 C 13.609375 -21.550781 15.15625 -22.378906 16.625 -22.828125 C 17.164062 -23.078125 17.96875 -23.203125 19.03125 -23.203125 C 19.726562 -23.203125 20.207031 -23.128906 20.46875 -22.984375 L 20.90625 -23.09375 C 21.34375 -23.09375 21.90625 -22.726562 22.59375 -22 C 23.289062 -21.269531 23.734375 -20.6875 23.921875 -20.25 C 23.921875 -19.039062 23.882812 -18.066406 23.8125 -17.328125 C 23.738281 -16.597656 23.554688 -16.234375 23.265625 -16.234375 C 23.222656 -16.234375 23.164062 -16.210938 23.09375 -16.171875 C 23.019531 -16.140625 22.984375 -16.050781 22.984375 -15.90625 C 22.984375 -15.394531 22.535156 -14.828125 21.640625 -14.203125 C 20.742188 -13.585938 19.929688 -13.28125 19.203125 -13.28125 L 18.984375 -13.328125 C 18.765625 -13.367188 18.441406 -13.585938 18.015625 -13.984375 C 17.597656 -14.390625 17.390625 -14.796875 17.390625 -15.203125 C 17.390625 -15.304688 17.609375 -15.59375 18.046875 -16.0625 C 18.484375 -16.539062 18.859375 -17.007812 19.171875 -17.46875 C 19.484375 -17.925781 19.640625 -18.410156 19.640625 -18.921875 C 19.640625 -19.109375 19.570312 -19.226562 19.4375 -19.28125 C 19.3125 -19.332031 19.066406 -19.359375 18.703125 -19.359375 C 16.691406 -18.453125 15.25 -17.59375 14.375 -16.78125 C 14.257812 -16.5625 14.15625 -16.394531 14.0625 -16.28125 C 13.976562 -16.175781 13.863281 -16.125 13.71875 -16.125 C 13.71875 -16.125 13.71875 -16.132812 13.71875 -16.15625 C 13.71875 -16.175781 13.695312 -16.1875 13.65625 -16.1875 C 13.582031 -16.1875 13.34375 -15.972656 12.9375 -15.546875 C 12.539062 -15.128906 12.164062 -14.644531 11.8125 -14.09375 C 11.46875 -13.550781 11.257812 -13.039062 11.1875 -12.5625 L 11.078125 -12.390625 L 11.078125 -12.125 C 11.046875 -12.050781 11.03125 -11.90625 11.03125 -11.6875 C 11.03125 -11.351562 11.175781 -11.015625 11.46875 -10.671875 C 11.757812 -10.328125 12.34375 -9.84375 13.21875 -9.21875 C 14.863281 -7.96875 15.988281 -7.039062 16.59375 -6.4375 C 17.195312 -5.84375 17.570312 -5.304688 17.71875 -4.828125 C 18.050781 -4.171875 18.21875 -3.585938 18.21875 -3.078125 C 18.21875 -1.828125 17.566406 -0.863281 16.265625 -0.1875 C 14.960938 0.488281 13.195312 0.828125 10.96875 0.828125 Z M 10.96875 0.828125 "/></g></g></g><g clip-path="url(#596f046dc4)"><g clip-path="url(#383a57d299)"><g clip-path="url(#9f5a69450d)"><path fill="#ffc29e" d="M 161.332031 164.039062 C 161.679688 161.234375 160.035156 158.34375 157.5 157.136719 C 155.875 156.355469 153.886719 156.183594 152.160156 156.746094 C 152.140625 156.488281 152.105469 156.230469 152.058594 155.976562 C 151.515625 152.910156 149.050781 150.449219 146.222656 149.3125 C 145.667969 149.082031 145.09375 148.898438 144.515625 148.75 C 142.863281 148.234375 141.214844 148.566406 139.652344 149.125 C 135.582031 150.570312 131.882812 153.636719 127.386719 153.265625 C 127.308594 153.253906 127.234375 153.300781 127.210938 153.378906 C 127.183594 153.464844 127.230469 153.554688 127.316406 153.578125 C 128.046875 153.8125 128.808594 153.929688 129.570312 153.941406 C 131.855469 153.980469 134.097656 153.175781 136.167969 152.355469 C 138.5625 151.476562 141.527344 149.777344 143.972656 150.5 C 147.035156 151.230469 149.941406 153.191406 151.03125 156.25 C 151.132812 156.53125 151.21875 156.816406 151.289062 157.105469 C 150.820312 157.34375 150.386719 157.648438 149.996094 158.015625 C 149.523438 158.484375 149.164062 159.089844 149.058594 159.738281 C 149.046875 159.804688 149.082031 159.878906 149.148438 159.910156 C 149.230469 159.949219 149.328125 159.914062 149.367188 159.832031 C 149.617188 159.308594 150.011719 158.894531 150.476562 158.589844 C 150.789062 158.394531 151.117188 158.234375 151.464844 158.105469 C 151.691406 158.019531 151.925781 157.953125 152.160156 157.894531 C 154.230469 157.40625 156.601562 157.988281 158.097656 159.433594 C 159.136719 160.449219 159.769531 161.890625 159.730469 163.347656 C 159.703125 164.03125 159.53125 164.699219 159.339844 165.351562 C 158.75 167.304688 157.398438 169.015625 155.433594 169.609375 C 154.246094 169.980469 152.980469 170.101562 151.742188 169.96875 C 149.398438 169.777344 147.757812 168.566406 145.957031 167.417969 C 147.527344 167.128906 149.160156 166.246094 149.507812 164.601562 C 149.542969 164.425781 149.304688 164.332031 149.210938 164.480469 C 148.605469 165.382812 147.699219 165.867188 146.6875 166.15625 C 145.996094 166.363281 145.28125 166.441406 144.578125 166.597656 C 144.574219 166.597656 144.574219 166.597656 144.574219 166.597656 C 144.335938 166.464844 144.09375 166.34375 143.839844 166.222656 C 143.238281 165.945312 142.617188 165.714844 141.992188 165.527344 C 143.519531 164.808594 144.839844 163.476562 145.4375 162.015625 C 145.765625 161.261719 145.972656 160.394531 145.773438 159.578125 C 145.730469 159.394531 145.453125 159.429688 145.453125 159.617188 C 145.429688 160.355469 145.125 161.042969 144.738281 161.660156 C 143.722656 163.363281 141.972656 164.507812 140.078125 164.992188 C 140.019531 165.007812 139.960938 165.023438 139.90625 165.039062 C 139.179688 164.917969 138.441406 164.832031 137.703125 164.777344 C 137.761719 164.738281 137.816406 164.695312 137.871094 164.648438 C 138.84375 163.871094 139.601562 162.722656 139.769531 161.488281 C 139.777344 161.417969 139.742188 161.347656 139.671875 161.316406 C 139.589844 161.28125 139.492188 161.320312 139.457031 161.402344 C 139.308594 161.738281 139.128906 162.050781 138.925781 162.339844 C 138.3125 163.1875 137.449219 163.839844 136.484375 164.226562 C 134.027344 165.238281 130.789062 164.339844 128.808594 162.699219 C 127.746094 161.765625 127.046875 160.441406 126.238281 159.246094 C 126.136719 159.097656 125.910156 159.195312 125.941406 159.367188 C 126.082031 160.121094 126.285156 160.863281 126.582031 161.59375 C 127.183594 163.128906 128.191406 164.195312 129.527344 164.925781 C 128.992188 164.996094 128.457031 165.097656 127.933594 165.238281 C 126.550781 165.589844 125.140625 166.21875 123.738281 165.996094 C 120.589844 165.851562 118.453125 160.902344 118.308594 158.144531 C 118.15625 155.792969 119.632812 153.441406 121.859375 152.605469 C 124.679688 151.527344 127.84375 152.175781 130.816406 151.558594 C 132.1875 151.3125 133.445312 150.640625 134.710938 150.121094 C 134.894531 150.046875 134.808594 149.773438 134.613281 149.816406 C 133.300781 150.160156 132.046875 150.683594 130.699219 150.804688 C 128.703125 151.019531 126.632812 150.738281 124.589844 150.804688 C 123.15625 150.84375 121.640625 151.089844 120.351562 151.792969 C 118.140625 152.953125 116.710938 155.390625 116.71875 157.894531 C 116.703125 160.417969 117.953125 163.554688 119.574219 165.484375 C 120.558594 166.667969 121.984375 167.636719 123.59375 167.730469 C 124.011719 167.796875 124.429688 167.808594 124.832031 167.78125 C 124.742188 169.734375 124.609375 171.691406 124.394531 173.636719 C 124.273438 174.800781 124.046875 176.179688 123.8125 177.328125 C 123.8125 177.328125 125.34375 176.933594 125.34375 176.933594 C 126.828125 176.5625 128.453125 176.460938 130.007812 176.429688 C 134.269531 176.398438 140.464844 176.96875 144.125 179.207031 C 144.191406 179.253906 144.285156 179.238281 144.339844 179.171875 C 144.394531 179.101562 144.378906 179 144.3125 178.945312 C 140.746094 176.300781 134.453125 175.152344 130.058594 174.789062 C 128.789062 174.703125 127.542969 174.65625 126.277344 174.746094 C 126.460938 172.335938 126.472656 169.925781 126.449219 167.507812 C 127.386719 167.273438 128.253906 166.96875 129.210938 166.800781 C 130.355469 166.601562 131.53125 166.578125 132.710938 166.550781 C 134.496094 166.511719 136.3125 166.496094 138.070312 166.671875 C 140.089844 166.875 142.046875 167.332031 143.816406 168.300781 C 144.851562 168.871094 145.800781 169.566406 146.824219 170.171875 C 146.289062 172.003906 145.9375 173.917969 145.53125 175.78125 C 143.855469 174.847656 142.050781 174.171875 140.207031 173.664062 C 137.9375 173.066406 135.53125 172.757812 133.210938 173.179688 C 133.128906 173.195312 133.074219 173.269531 133.078125 173.351562 C 133.085938 173.4375 133.160156 173.507812 133.25 173.5 C 134.382812 173.421875 135.519531 173.535156 136.625 173.757812 C 139.367188 174.332031 141.980469 175.523438 144.296875 177.078125 C 144.753906 177.386719 145.1875 177.71875 145.585938 178.0625 C 145.585938 178.0625 146.78125 178.929688 146.78125 178.929688 C 146.867188 178.550781 147.152344 177.394531 147.226562 177.03125 C 147.625 175.085938 147.941406 172.960938 148.4375 171 C 150.808594 171.992188 153.542969 172.109375 155.984375 171.296875 C 159.183594 170.261719 160.917969 167.226562 161.332031 164.039062 Z M 161.332031 164.039062 " fill-opacity="1" fill-rule="nonzero"/></g></g></g></svg>